<?xml version="1.0" encoding="UTF-8" standalone="no"?>
<!-- Created with Inkscape (http://www.inkscape.org/) -->

<svg
   width="211.76073mm"
   height="52.670689mm"
   viewBox="0 0 211.76073 52.670687"
   version="1.1"
   id="svg5"
   inkscape:version="1.1.2 (1:1.1+202202050950+0a00cf5339)"
   sodipodi:docname="bottom  parent.svg"
   xmlns:inkscape="http://www.inkscape.org/namespaces/inkscape"
   xmlns:sodipodi="http://sodipodi.sourceforge.net/DTD/sodipodi-0.dtd"
   xmlns:xlink="http://www.w3.org/1999/xlink"
   xmlns="http://www.w3.org/2000/svg"
   xmlns:svg="http://www.w3.org/2000/svg">
  <sodipodi:namedview
     id="namedview7"
     pagecolor="#ffffff"
     bordercolor="#666666"
     borderopacity="1.0"
     inkscape:pageshadow="2"
     inkscape:pageopacity="0.0"
     inkscape:pagecheckerboard="0"
     inkscape:document-units="mm"
     showgrid="false"
     fit-margin-top="0"
     fit-margin-left="0"
     fit-margin-right="0"
     fit-margin-bottom="0"
     showborder="false"
     inkscape:zoom="0.46858866"
     inkscape:cx="433.21577"
     inkscape:cy="-217.67492"
     inkscape:window-width="1366"
     inkscape:window-height="702"
     inkscape:window-x="0"
     inkscape:window-y="38"
     inkscape:window-maximized="1"
     inkscape:current-layer="layer1" />
  <defs
     id="defs2">
    <linearGradient
       inkscape:collect="always"
       id="linearGradient4256">
      <stop
         style="stop-color:#d6f28d;stop-opacity:1"
         offset="0"
         id="stop4252" />
      <stop
         style="stop-color:#33f4ff;stop-opacity:0.67058825"
         offset="1"
         id="stop4254" />
    </linearGradient>
    <linearGradient
       inkscape:collect="always"
       xlink:href="#linearGradient4256"
       id="linearGradient4258"
       x1="0.17336515"
       y1="91.677582"
       x2="211.93376"
       y2="91.677582"
       gradientUnits="userSpaceOnUse"
       gradientTransform="translate(-0.82078349,-8.6715166)" />
    <linearGradient
       inkscape:collect="always"
       xlink:href="#linearGradient4256"
       id="linearGradient4437"
       gradientUnits="userSpaceOnUse"
       gradientTransform="translate(4.1265425,110.201)"
       x1="0.17336515"
       y1="91.677582"
       x2="211.93376"
       y2="91.677582" />
  </defs>
  <g
     inkscape:label="Layer 1"
     inkscape:groupmode="layer"
     id="layer1"
     transform="translate(-4.2996585,-205.75744)">
    <path
       id="rect1923"
       style="fill:url(#linearGradient4437);fill-opacity:1;stroke-width:1;stroke-linecap:round;stroke-linejoin:round;paint-order:markers fill stroke"
       d="m 216.06038,205.75744 c -1.74394,0.39429 -3.41885,0.77254 -6.48798,1.47588 -4.14005,0.94875 -9.65508,2.21934 -17.00154,3.92017 -0.45916,0.10631 -0.92925,0.20396 -1.41077,0.29456 -0.48152,0.0906 -0.9741,0.1738 -1.47743,0.25063 -0.50332,0.0768 -1.01745,0.1474 -1.54202,0.21239 -0.52458,0.065 -1.05981,0.12475 -1.60507,0.17983 -1.09053,0.11018 -2.22211,0.20209 -3.39204,0.28422 -1.16994,0.0821 -2.37817,0.15423 -3.62304,0.22376 -1.24487,0.0695 -2.52628,0.13691 -3.84162,0.20929 -1.31535,0.0724 -2.66492,0.14962 -4.04627,0.2403 -1.38135,0.0907 -2.79459,0.19441 -4.23747,0.31884 -0.72144,0.0622 -1.44992,0.12954 -2.18591,0.20309 -0.73598,0.0736 -1.47935,0.15348 -2.22932,0.24029 -0.74997,0.0868 -1.50674,0.18067 -2.27015,0.28267 -0.7634,0.10201 -1.53314,0.21212 -2.30942,0.33125 -0.77627,0.11913 -1.55907,0.24732 -2.34766,0.38551 -0.78858,0.13818 -1.58298,0.28627 -2.38331,0.44545 -0.80034,0.15917 -1.60641,0.3295 -2.41794,0.51159 -0.81154,0.1821 -1.62885,0.37597 -2.45102,0.58291 -0.82216,0.20695 -1.64925,0.42671 -2.4815,0.66043 -0.83224,0.23372 -1.66971,0.4817 -2.51147,0.74414 -0.84177,0.26243 -1.68814,0.53943 -2.53887,0.83251 -0.85072,0.29308 -1.70557,0.60194 -2.5647,0.92759 -0.85912,0.32565 -1.72253,0.66821 -2.5895,1.02837 -0.86697,0.36015 -1.73748,0.73822 -2.61173,1.13481 -0.87425,0.39659 -1.75193,0.81148 -2.63291,1.24644 -0.88098,0.43495 -1.76541,0.88952 -2.65255,1.36477 -0.88715,0.47525 -1.77737,0.97132 -2.67013,1.4888 -0.89275,0.51748 -1.78781,1.05634 -2.68562,1.61799 -0.58035,0.36304 -1.16757,0.7169 -1.76165,1.06091 -0.59409,0.34401 -1.19513,0.67849 -1.80248,1.00407 -0.60735,0.3256 -1.22108,0.64203 -1.84123,0.94982 -0.62015,0.30779 -1.24648,0.60702 -1.87895,0.89762 -0.63248,0.2906 -1.27132,0.57242 -1.91565,0.84646 -0.64433,0.27403 -1.29455,0.54031 -1.95027,0.7984 -0.65571,0.25809 -1.31671,0.5081 -1.98334,0.75086 -0.66663,0.24275 -1.33883,0.47786 -2.0159,0.7059 -0.67707,0.22804 -1.35934,0.44906 -2.04638,0.66301 -0.68704,0.21394 -1.37879,0.4212 -2.07533,0.62166 -0.69654,0.20047 -1.39765,0.39427 -2.10323,0.58188 -0.70557,0.18761 -1.41545,0.36879 -2.129592,0.54415 -0.71413,0.17537 -1.43268,0.34476 -2.1549,0.5085 -0.72222,0.16374 -1.44832,0.32166 -2.17816,0.47439 -0.72985,0.15273 -1.4634,0.30052 -2.20038,0.44287 -0.737,0.14234 -1.47739,0.27929 -2.22106,0.41186 -1.48733,0.26514 -2.98773,0.51128 -4.498949,0.74104 -1.511221,0.22976 -3.033242,0.44353 -4.564581,0.64285 -1.531337,0.19932 -3.071662,0.38428 -4.619356,0.55811 -1.547693,0.17382 -3.102482,0.33611 -4.662765,0.48937 -1.560282,0.15327 -3.126213,0.29747 -4.695319,0.43512 -1.569106,0.13765 -3.141829,0.26886 -4.715992,0.39584 -3.148325,0.25396 -6.302555,0.49134 -9.448519,0.73226 -3.145962,0.24091 -6.283365,0.48551 -9.396841,0.75292 -1.55674,0.13371 -3.107394,0.2729 -4.650362,0.42065 -1.542968,0.14774 -3.078422,0.30405 -4.603853,0.47077 -1.525434,0.16672 -3.041328,0.34421 -4.545461,0.53485 -1.504131,0.19064 -2.99663,0.39442 -4.475695,0.61392 -1.479065,0.21949 -2.944331,0.45466 -4.394564,0.70796 -0.725117,0.12665 -1.44649,0.25775 -2.163692,0.39378 -0.717203,0.13602 -1.430587,0.27669 -2.139404,0.42271 -0.708818,0.14602 -1.413087,0.2976 -2.11305,0.45424 -0.699962,0.15663 -1.395542,0.31841 -2.086178,0.48627 -0.690636,0.16787 -1.376399,0.3417 -2.057239,0.52142 -0.680839,0.17971 -1.3566945,0.36541 -2.0272665,0.55759 -0.670572,0.19218 -1.33591,0.39056 -1.995744,0.59582 -0.659834,0.20527 -1.314046,0.41769 -1.962671,0.63666 -0.163347,0.0551 -0.32314,0.11449 -0.485758,0.17053 v 8.03517 H 216.06038 Z" />
    <g
       id="g4455">
      <path
         id="path4434"
         style="fill:url(#linearGradient4258);fill-opacity:1;stroke-width:1;stroke-linecap:round;stroke-linejoin:round;paint-order:markers fill stroke"
         d="M -0.64766749,26.456571 V 131.52044 c 0.162618,-0.056 0.322411,-0.11539 0.485758,-0.17053 0.648625,-0.21897 1.30283699,-0.43139 1.96267099,-0.63666 0.659834,-0.20526 1.325172,-0.40364 1.995744,-0.59582 0.670572,-0.19218 1.346427,-0.37788 2.027266,-0.55759 0.68084,-0.17972 1.366603,-0.35355 2.057239,-0.52142 0.690636,-0.16786 1.3862152,-0.32964 2.0861778,-0.48627 0.6999627,-0.15664 1.4042317,-0.30822 2.1130497,-0.45424 0.708817,-0.14602 1.422201,-0.28669 2.139404,-0.42271 0.717202,-0.13603 1.438575,-0.26713 2.163692,-0.39378 1.450233,-0.2533 2.915499,-0.48847 4.394564,-0.70796 1.479065,-0.2195 2.971564,-0.42328 4.475695,-0.61392 1.504133,-0.19064 3.020027,-0.36813 4.545461,-0.53485 1.525431,-0.16672 3.060885,-0.32303 4.603853,-0.47077 1.542968,-0.14775 3.093622,-0.28694 4.650362,-0.42065 3.113476,-0.26741 6.250879,-0.51201 9.396841,-0.75292 3.145964,-0.24092 6.300194,-0.4783 9.448519,-0.73226 1.574163,-0.12698 3.146886,-0.25819 4.715992,-0.39584 1.569106,-0.13765 3.135037,-0.28185 4.695319,-0.43512 1.560283,-0.15326 3.115072,-0.31555 4.662765,-0.48937 1.547694,-0.17383 3.088019,-0.35879 4.619356,-0.55811 1.531339,-0.19932 3.05336,-0.41309 4.564581,-0.64285 1.511218,-0.22976 3.011614,-0.4759 4.498948,-0.74104 0.743667,-0.13257 1.484064,-0.26952 2.221055,-0.41186 0.736989,-0.14235 1.470539,-0.29014 2.200381,-0.44287 0.729843,-0.15273 1.455939,-0.31065 2.178161,-0.47439 0.722225,-0.16374 1.440776,-0.33313 2.154907,-0.5085 0.714134,-0.17536 1.424014,-0.35654 2.129586,-0.54415 0.705575,-0.18761 1.406689,-0.38141 2.103232,-0.58188 0.696542,-0.20046 1.388288,-0.40772 2.075328,-0.62166 0.68704,-0.21395 1.36931,-0.43497 2.04638,-0.66301 0.67707,-0.22804 1.34927,-0.46315 2.0159,-0.7059 0.66663,-0.24276 1.32763,-0.49277 1.98334,-0.75086 0.65572,-0.25809 1.30594,-0.52437 1.95027,-0.7984 0.64433,-0.27404 1.28317,-0.55586 1.91565,-0.84646 0.63247,-0.2906 1.2588,-0.58983 1.87895,-0.89762 0.62015,-0.30779 1.23388,-0.62422 1.84123,-0.94982 0.60735,-0.32558 1.20839,-0.66006 1.80248,-1.00407 0.59408,-0.34401 1.1813,-0.69787 1.76165,-1.06091 0.89781,-0.56165 1.79287,-1.10051 2.68562,-1.61799 0.89276,-0.51748 1.78298,-1.01355 2.67013,-1.4888 0.88714,-0.47525 1.77157,-0.92982 2.65255,-1.36477 0.88098,-0.43496 1.75866,-0.84985 2.63291,-1.24644 0.87425,-0.39659 1.74476,-0.77466 2.61173,-1.13481 0.86697,-0.36016 1.73038,-0.70272 2.5895,-1.02837 0.85913,-0.32565 1.71398,-0.63451 2.5647,-0.927589 0.85073,-0.293076 1.6971,-0.570074 2.53887,-0.832508 0.84176,-0.262435 1.67923,-0.510416 2.51147,-0.744141 0.83225,-0.233722 1.65934,-0.453483 2.4815,-0.660424 0.82217,-0.206944 1.63948,-0.400817 2.45102,-0.582911 0.81153,-0.182092 1.6176,-0.35242 2.41794,-0.511596 0.80033,-0.159173 1.59473,-0.307263 2.38331,-0.44545 0.78859,-0.138186 1.57139,-0.266377 2.34766,-0.385506 0.77628,-0.119131 1.54602,-0.229243 2.30942,-0.331247 0.76341,-0.102005 1.52018,-0.195861 2.27015,-0.282671 0.74997,-0.08681 1.49334,-0.166748 2.22932,-0.240294 0.73599,-0.07355 1.46447,-0.140875 2.18591,-0.203089 1.44288,-0.124426 2.85612,-0.228164 4.23747,-0.318844 1.38135,-0.09068 2.73092,-0.167913 4.04627,-0.240295 1.31534,-0.07238 2.59675,-0.139758 3.84162,-0.209291 1.24487,-0.06953 2.4531,-0.141628 3.62304,-0.223758 1.16993,-0.08213 2.30151,-0.174045 3.39204,-0.28422 0.54526,-0.05509 1.08049,-0.11484 1.60507,-0.179832 0.52457,-0.065 1.0387,-0.13556 1.54202,-0.212392 0.50333,-0.07683 0.99591,-0.160028 1.47743,-0.250629 0.48152,-0.0906 0.95161,-0.188254 1.41077,-0.294558 7.34646,-1.700834 12.86149,-2.971419 17.00154,-3.920173 3.06913,-0.703336 4.74404,-1.08159 6.48798,-1.47588 V 26.456571 Z" />
      <g
         id="g1519"
         transform="translate(-1.2197581,-54.461447)">
        <path
           style="fill:#f6f0da;stroke-width:0.436813"
           d="m 53.598287,144.37864 c -1.1583,-0.36497 -3.816437,-0.62209 -6.471708,-0.626 -5.223966,-0.008 -6.312704,-0.39411 -6.125974,-2.1743 0.09904,-0.94414 -0.310906,-1.70901 -1.756531,-3.27732 -3.829168,-4.15416 -4.572592,-8.33659 -2.505234,-14.09418 0.956588,-2.6641 1.13418,-3.89891 1.13418,-7.88607 0,-4.20788 0.124032,-4.97628 1.12868,-6.99235 0.620774,-1.24573 2.024206,-3.05324 3.118737,-4.01668 3.293832,-2.89935 5.61464,-3.14177 14.665067,-1.53186 3.989152,0.70961 4.477754,0.71304 7.207412,0.0507 4.045045,-0.98148 6.445774,-0.8923 9.087011,0.33754 3.142376,1.4632 4.326414,3.2725 4.318167,6.59849 -0.0035,1.44148 -0.278944,3.51304 -0.611935,4.60348 -0.835663,2.7365 -0.387585,4.54167 2.010938,8.1014 2.632418,3.90686 2.957303,6.35564 1.318214,9.93588 -0.606978,1.32582 -1.924903,3.30159 -2.928722,4.39061 -1.547973,1.67935 -1.782607,2.17359 -1.545142,3.25475 0.495101,2.25419 -0.459777,2.69325 -5.857361,2.69325 -3.077928,0 -5.364596,0.22784 -6.575914,0.65522 -2.301381,0.81197 -6.996291,0.80094 -9.609885,-0.0226 z m 40.245846,0.006 c -0.808388,-0.35097 -2.399588,-0.63813 -3.536005,-0.63813 -2.687217,0 -3.812111,-1.04759 -3.011555,-2.80462 0.467788,-1.02668 0.379726,-1.4741 -0.716054,-3.63819 -1.776396,-3.50827 -2.016569,-8.04626 -0.644788,-12.18305 0.710332,-2.14209 1.073826,-4.5531 1.274943,-8.45654 0.314357,-6.10124 0.733815,-7.29963 3.363006,-9.60809 2.202616,-1.93393 4.580862,-2.92475 8.477395,-3.53186 6.189545,-0.96437 11.346835,0.0529 13.806035,2.72313 0.51936,0.56394 1.59154,2.88815 2.38262,5.16492 0.79108,2.27677 2.24756,5.32354 3.23661,6.7706 0.98906,1.44706 2.48827,3.63355 3.33158,4.85886 2.93243,4.26074 3.27123,10.01607 0.86056,14.61867 -0.88826,1.69592 -1.20188,2.80695 -1.03652,3.67198 0.29022,1.51817 -0.73425,2.41419 -2.76028,2.41419 -0.7656,0 -2.09768,0.29485 -2.96017,0.65522 -0.86249,0.36037 -2.56362,0.65522 -3.78028,0.65522 -1.21667,0 -2.9178,-0.29485 -3.78029,-0.65522 -0.86249,-0.36037 -2.40399,-0.65522 -3.42556,-0.65522 -1.02156,0 -2.69308,0.29485 -3.71448,0.65522 -2.328736,0.82163 -5.451621,0.81438 -7.366767,-0.0171 z m 51.107117,0 c -0.92737,-0.40263 -2.91274,-0.63813 -5.37967,-0.63813 -4.55015,0 -5.59971,-0.40098 -5.59971,-2.13937 0,-0.71489 -0.5525,-1.93024 -1.31189,-2.88582 -2.07609,-2.61241 -2.62058,-5.20211 -2.61077,-12.4174 0.0151,-11.12396 1.1643,-15.3297 5.14843,-18.84217 4.36636,-3.84946 7.49681,-4.68147 13.809,-3.6702 4.12128,0.66027 4.64706,0.65636 8.20627,-0.061 3.20646,-0.6463 4.16143,-0.68375 6.08919,-0.23877 5.56877,1.28542 7.72635,5.45236 5.78035,11.16356 -1.03459,3.03635 -0.60195,5.04838 1.87345,8.71265 1.98616,2.94006 2.11074,3.29203 2.11074,5.96375 0,3.33196 -0.70365,4.98244 -3.5416,8.30718 -1.37853,1.61499 -1.82851,2.44111 -1.50556,2.76406 0.74744,0.74744 0.52733,2.40351 -0.38429,2.8914 -0.4647,0.2487 -2.57778,0.45504 -4.69574,0.45854 -2.36734,0.004 -4.60808,0.27159 -5.81649,0.69485 -1.65933,0.5812 -2.31588,0.60509 -4.21298,0.15331 -1.70169,-0.40525 -2.59249,-0.41488 -3.6689,-0.0396 -1.818,0.63376 -2.48638,0.60622 -4.28983,-0.17676 z m 26.44094,-24.95404 c -0.98241,-0.98241 0.47052,-4.51374 1.85713,-4.51374 1.89968,0 2.45216,2.3885 0.90935,3.93132 -0.86417,0.86416 -2.2029,1.146 -2.76648,0.58241 z m -53.24359,-6.08325 c -0.41335,-0.9072 -0.38975,-1.35516 0.11857,-2.25012 1.44256,-2.53986 3.56814,-2.373 3.83227,0.30084 0.27274,2.76087 -2.87373,4.31329 -3.95084,1.94928 z m -82.648639,-9.75513 c -1.133464,-1.25246 -0.726844,-2.43497 0.837295,-2.43497 1.368792,0 2.555945,1.51229 2.106525,2.68346 -0.333338,0.86867 -2.065099,0.72249 -2.94382,-0.24849 z m 55.292728,-1.67688 c -1.406975,-1.19918 -1.426387,-3.383784 -0.03398,-3.825712 2.049378,-0.650447 3.651494,3.123782 1.756512,4.137952 -0.630614,0.33749 -1.049216,0.26161 -1.722515,-0.31224 z m 61.236941,-0.80359 c -0.67071,-1.02363 -0.68265,-1.317495 -0.11928,-2.934557 0.37776,-1.084257 1.09069,-2.056675 1.79746,-2.451678 1.06911,-0.597509 1.25027,-0.58328 2.07486,0.162969 1.153,1.043452 1.16731,3.083456 0.0346,4.941156 -1.09669,1.79871 -2.71499,1.91924 -3.78768,0.28211 z M 41.31485,99.271278 c -1.146365,-1.024276 -1.376896,-1.549411 -1.376896,-3.136478 0,-1.449092 0.235393,-2.096833 0.981583,-2.70106 1.208526,-0.978605 1.718573,-0.992553 3.017813,-0.08253 2.192392,1.53561 2.629296,5.208298 0.774156,6.507688 -1.29268,0.905432 -1.829604,0.812542 -3.396656,-0.58762 z"
           id="path1547" />
        <path
           style="fill:#ddd7aa;stroke-width:0.436813"
           d="m 55.782352,144.62264 c -1.081112,-0.19583 -2.519011,-0.57148 -3.195331,-0.83476 -0.676319,-0.26327 -3.144964,-0.47868 -5.485877,-0.47868 -4.765113,0 -6.356445,-0.59615 -5.470225,-2.04928 0.343193,-0.56273 1.12861,-0.82799 2.730081,-0.92204 1.236554,-0.0726 2.248279,-0.22174 2.248279,-0.33139 0,-0.10965 -0.578614,-0.99811 -1.285809,-1.97437 -2.012267,-2.77785 -2.756654,-5.57928 -2.580059,-9.70981 0.175033,-4.09399 1.426809,-7.19812 4.06359,-10.07682 0.852242,-0.93042 1.54953,-1.78846 1.54953,-1.90673 0,-0.11827 -0.589697,-0.88667 -1.310439,-1.70754 -0.720741,-0.82088 -1.307429,-1.63309 -1.30375,-1.80492 0.02905,-1.35671 2.57086,-2.1914 6.857916,-2.25203 1.445017,-0.0204 2.162444,0.25597 3.333764,1.2844 0.820879,0.72074 1.686144,1.31044 1.922811,1.31044 0.236667,0 0.958583,-0.79829 1.604256,-1.77396 0.958628,-1.44859 1.389903,-1.74904 2.351313,-1.63805 1.330336,0.15357 1.842918,1.69168 0.930241,2.79139 -0.292922,0.35295 -0.455438,0.69742 -0.361139,0.76548 0.0943,0.0681 1.48792,0.75852 3.096943,1.53434 4.790375,2.30978 7.814431,6.45537 8.767443,12.01902 0.615085,3.59083 -0.344802,7.79225 -2.53334,11.08842 l -1.524294,2.29576 h 2.173158 c 1.700041,0 2.271414,0.18359 2.624472,0.84329 0.340675,0.63655 0.283247,1.01136 -0.234236,1.52884 -0.529618,0.52962 -1.65954,0.68556 -4.967564,0.68556 -2.515964,0 -4.983883,0.24763 -5.983787,0.60042 -2.375485,0.83812 -5.696834,1.13348 -8.017947,0.71302 z m -0.436813,-5.65213 c 0,-0.22406 -0.414861,-0.53905 -0.921914,-0.69999 -1.430246,-0.45394 -4.290799,-3.23864 -5.241849,-5.10285 -0.472308,-0.9258 -1.039186,-1.57175 -1.259729,-1.43545 -0.506239,0.31287 -0.147169,1.2868 1.27753,3.46514 1.571066,2.40213 6.145962,5.21076 6.145962,3.77315 z m 39.531574,5.35762 c -1.201236,-0.36718 -3.166894,-0.76686 -4.36813,-0.88817 -3.192578,-0.32243 -4.04629,-1.22711 -2.44876,-2.59495 0.75224,-0.64409 0.772067,-0.84067 0.218406,-2.16576 -0.8439,-2.01973 -0.746404,-5.72712 0.205717,-7.82297 0.437504,-0.96305 1.541243,-2.4058 2.452749,-3.20611 1.437748,-1.26236 1.912127,-1.43485 3.581015,-1.30212 1.753961,0.1395 1.944883,0.0562 2.163512,-0.94361 0.405184,-1.85301 1.832265,-7.16911 2.135365,-7.95457 0.248315,-0.64348 -0.08291,-0.76007 -2.48188,-0.87362 -2.513011,-0.11895 -2.781612,-0.22403 -2.911284,-1.13882 -0.158126,-1.11552 2.765533,-5.33314 4.414738,-6.36861 0.533427,-0.33493 2.444109,-0.70703 4.245969,-0.8269 l 3.27609,-0.21795 1.52885,1.60844 c 2.06829,2.17598 5.06554,8.38374 6.23837,12.92063 l 0.96178,3.72046 h 1.46504 c 4.36585,0 7.71407,6.58237 6.00542,11.80626 -0.40217,1.22956 -0.608,2.62377 -0.45741,3.09824 0.39514,1.24496 -0.55133,2.1312 -2.27602,2.1312 -0.82338,0 -2.12613,0.32659 -2.895,0.72576 -0.80719,0.41906 -2.41323,0.72577 -3.80042,0.72577 -1.3872,0 -2.99324,-0.30671 -3.80043,-0.72577 -1.69804,-0.88156 -4.74366,-0.93846 -6.73895,-0.1259 -2.456064,1.00021 -4.413798,1.1224 -6.714737,0.41907 z m -0.441906,-6.0699 c -2.080645,-2.02215 -2.851083,-2.29155 -1.998717,-0.69889 0.60192,1.1247 2.589227,2.69217 3.413244,2.69217 0.350669,0 -0.284426,-0.89494 -1.414527,-1.99328 z m 16.385583,1.65065 c 0,-0.18845 -0.57774,-0.68391 -1.28386,-1.10103 -0.70612,-0.41712 -1.40735,-1.14748 -1.55828,-1.62303 -0.15094,-0.47555 -0.45775,-0.86463 -0.6818,-0.86463 -0.8313,0 -0.36637,1.28425 0.93666,2.58728 1.25994,1.25994 2.58728,1.77369 2.58728,1.00141 z m -4.80495,-12.76176 c 0.68815,-0.53828 1.78171,-0.85779 2.95681,-0.86391 1.80961,-0.009 1.85648,-0.0452 1.58411,-1.21095 -1.00184,-4.28763 -4.56625,-12.33996 -5.46236,-12.33996 -0.87715,0 -4.14905,7.96444 -4.97969,12.12155 -0.269055,1.34654 -0.21689,1.41965 1.01309,1.41965 0.71322,0 1.7608,0.38659 2.32798,0.85909 1.26946,1.05757 1.22693,1.05732 2.56006,0.0145 z m 38.87636,16.84209 c -0.7554,-0.44897 -2.37798,-0.65382 -5.2636,-0.66453 -4.26518,-0.0158 -5.21991,-0.34567 -5.21991,-1.80336 0,-0.93792 0.87339,-1.26981 3.34156,-1.26981 h 1.95968 l -0.91749,-1.2885 c -1.89167,-2.6566 -3.13782,-6.09756 -3.37112,-9.30857 -0.31759,-4.37115 0.84738,-7.41864 4.03528,-10.55601 l 2.3386,-2.30153 -1.47096,-1.42572 c -2.63258,-2.5516 -2.3555,-3.88438 0.91942,-4.42254 4.45437,-0.73199 5.67832,-0.53752 7.61197,1.20942 1.91783,1.73264 1.74107,1.77805 3.36106,-0.86339 0.76019,-1.23951 2.29709,-1.93436 3.13419,-1.417 0.73726,0.45565 0.53601,1.96706 -0.42451,3.18817 -1.04589,1.32964 -0.87068,1.54293 1.87386,2.28107 2.25958,0.60771 5.4404,2.66421 6.78151,4.38444 3.63522,4.66291 3.85037,11.43392 0.5685,17.8922 l -1.31286,2.58355 2.23035,0.1314 c 2.52359,0.14869 3.5681,1.07518 2.56913,2.27887 -0.4448,0.53594 -1.44594,0.69183 -4.44316,0.69183 -2.5368,0 -4.4739,0.24203 -5.62578,0.70293 -1.17686,0.47088 -2.29729,0.60559 -3.39414,0.40807 -2.1082,-0.37964 -3.7812,-0.39444 -6.22389,-0.055 -1.37221,0.19066 -2.29535,0.0771 -3.05769,-0.37594 z m 2.18406,-4.38525 c 0,-0.1159 -0.85103,-1.09893 -1.89119,-2.18449 -1.04015,-1.08557 -2.35143,-2.9564 -2.91395,-4.1574 -1.1024,-2.35366 -2.03202,-2.94594 -1.54195,-0.9824 0.60389,2.41957 4.50255,7.53502 5.7427,7.53502 0.33242,0 0.60439,-0.0948 0.60439,-0.21073 z"
           id="path1545" />
        <path
           style="fill:#a5a099;stroke-width:0.436813"
           d="m 52.724661,143.51391 c -2.384519,-0.77636 -4.256833,-1.06823 -6.879804,-1.07249 -2.909488,-0.005 -3.603707,-0.13207 -3.603707,-0.66107 0,-0.50961 0.582417,-0.65522 2.620877,-0.65522 1.552825,0 2.620878,-0.18844 2.620878,-0.46242 0,-0.25434 -0.580734,-1.18803 -1.290521,-2.07487 -2.312583,-2.88944 -3.235132,-5.58938 -3.237559,-9.47506 -0.0018,-2.88419 0.208876,-3.96186 1.206284,-6.17047 0.664656,-1.47178 1.978814,-3.42819 2.920351,-4.34758 0.941536,-0.91938 1.711884,-1.85147 1.711884,-2.07131 0,-0.21983 -0.589697,-1.07133 -1.310439,-1.8922 -0.720741,-0.82088 -1.310439,-1.65817 -1.310439,-1.86064 0,-0.92911 1.629495,-1.51134 4.720028,-1.68648 3.233251,-0.18323 3.425562,-0.13892 5.059125,1.16567 0.933962,0.74588 1.854901,1.35615 2.046532,1.35615 0.191631,0 0.901725,-0.78006 1.577985,-1.73346 1.459599,-2.05778 2.248409,-2.45825 3.121773,-1.58488 0.568888,0.56888 0.559728,0.77532 -0.07755,1.74793 -0.910869,1.39016 -0.916814,2.00722 -0.01935,2.00722 1.351779,0 5.928351,2.79293 7.4654,4.55589 4.95297,5.68094 5.355423,13.42292 1.019521,19.61261 -0.969309,1.38374 -1.762378,2.59563 -1.762378,2.69309 0,0.0975 1.083374,0.23617 2.407494,0.30822 3.918339,0.21321 3.0072,0.97796 -1.533868,1.28742 -2.489306,0.16963 -5.111018,0.64458 -6.552195,1.18697 -3.244787,1.2212 -6.811682,1.16468 -10.920324,-0.17302 z m 3.407448,-4.22498 c 0.08843,-0.45919 -0.35737,-0.99206 -1.190323,-1.4228 -2.095563,-1.08365 -4.375082,-3.27682 -5.309428,-5.10829 -0.558081,-1.09393 -1.158239,-1.6794 -1.721518,-1.6794 -1.269639,0 -1.106905,1.63118 0.399751,4.00693 2.417881,3.8126 7.382924,6.48099 7.821518,4.20356 z m -7.775578,-10.85232 c 0,-1.1459 -0.841667,-1.50865 -1.642442,-0.70788 -0.551449,0.55145 -0.579628,0.81193 -0.144553,1.33616 0.680917,0.82045 1.786995,0.43157 1.786995,-0.62828 z m 45.646956,15.45168 c -0.960988,-0.38115 -2.694747,-0.78555 -3.852795,-0.89868 -2.286432,-0.22335 -3.091042,-1.10368 -1.84291,-2.01633 0.705335,-0.51576 0.705449,-0.69188 0.0022,-3.11157 -1.056358,-3.63375 -0.397941,-6.43829 2.179784,-9.28477 1.80008,-1.98777 1.987648,-2.08095 4.020698,-1.99732 l 2.13253,0.0877 1.198239,-4.45585 c 1.692536,-6.29454 1.791728,-5.76629 -1.082925,-5.76629 -1.367828,0 -2.711373,-0.22311 -2.985661,-0.49582 -0.671329,-0.66745 0.273528,-2.45779 2.717728,-5.14964 l 1.881258,-2.07187 3.532677,-0.2394 c 3.46417,-0.23476 3.55544,-0.21499 4.70748,1.01938 2.29687,2.46101 5.78954,10.42129 7.01549,15.98924 0.22432,1.01882 0.43323,1.15724 1.45777,0.96588 1.59304,-0.29756 3.67965,1.03922 5.19394,3.32748 1.50353,2.27199 1.89294,6.11103 0.89648,8.83808 -0.37007,1.01276 -0.63989,2.32398 -0.59961,2.91381 0.0632,0.92597 -0.16537,1.11533 -1.67401,1.38666 -0.96099,0.17283 -2.47807,0.62394 -3.37127,1.00244 -2.19107,0.92849 -4.66326,0.86596 -7.33065,-0.18543 -2.78486,-1.09769 -4.21119,-1.09976 -6.6137,-0.01 -2.286094,1.03734 -5.202913,1.09576 -7.582727,0.15188 z m 2.522075,-3.46518 c 0.323596,-0.3236 -3.824926,-4.53973 -4.466932,-4.53973 -0.975089,0 -0.382225,1.48861 1.238247,3.10908 1.593314,1.59331 2.613827,2.04551 3.228685,1.43065 z M 111.2576,140.263 c 0,-0.23392 -0.88972,-1.31503 -1.97716,-2.40247 -1.08743,-1.08743 -2.16854,-1.97715 -2.40247,-1.97715 -0.65231,0 -0.50613,1.21783 0.29249,2.43668 1.08146,1.65052 4.08714,3.07936 4.08714,1.94294 z m -2.11386,-13.66586 1.79007,0.0714 -0.26944,-1.96578 c -0.45816,-3.34261 -4.50961,-12.40727 -5.54543,-12.40727 -1.02368,0 -4.10498,7.30426 -5.389892,12.77678 -0.25675,1.0935 -0.171379,1.20124 0.951852,1.20124 0.67864,0 1.88484,0.48024 2.68044,1.06722 l 1.44655,1.06723 1.27289,-0.9411 c 0.87615,-0.64776 1.83085,-0.91884 3.06296,-0.86971 z m 43.64889,17.33129 c -1.26439,-0.37333 -2.2429,-0.42354 -2.95774,-0.15175 -1.64696,0.62617 -3.96797,0.4832 -5.5104,-0.33943 -0.8754,-0.46689 -2.86745,-0.83426 -5.32927,-0.98283 -4.3529,-0.26269 -5.16804,-1.03224 -1.31546,-1.24188 1.32412,-0.072 2.4075,-0.33148 2.4075,-0.57652 0,-0.24503 -0.60143,-1.31966 -1.33651,-2.38806 -3.13629,-4.55844 -3.93491,-10.67112 -1.95095,-14.9326 0.58968,-1.26661 2.05816,-3.2483 3.2633,-4.40378 l 2.19116,-2.10086 -1.3395,-1.27479 c -3.22108,-3.06547 -2.58815,-4.15662 2.58476,-4.45608 l 3.45762,-0.20016 1.8695,1.68899 c 1.76345,1.59317 1.89693,1.64125 2.35283,0.84759 0.26583,-0.46276 1.11094,-1.54309 1.87802,-2.40073 1.31486,-1.47009 1.43774,-1.51681 2.14706,-0.81631 0.71145,0.70259 0.68838,0.83974 -0.42403,2.5207 -0.84072,1.27042 -1.01713,1.83245 -0.61822,1.96959 5.91418,2.03322 8.06508,3.40534 9.95506,6.35062 2.84197,4.42882 2.76609,10.50532 -0.20438,16.3669 -0.8537,1.68458 -1.5513,3.20049 -1.55022,3.36869 8.7e-4,0.16819 1.08533,0.36476 2.40945,0.43681 3.75373,0.20425 3.07216,0.97553 -1.09705,1.24143 -2.0421,0.13024 -4.12972,0.46752 -4.63916,0.74951 -1.84692,1.02233 -4.27956,1.30479 -6.24337,0.72495 z m -4.97098,-3.94679 c 0.0894,-0.26855 -0.74354,-1.42058 -1.85098,-2.56005 -1.10744,-1.13947 -2.54495,-3.18025 -3.19447,-4.53507 -1.2242,-2.55352 -2.36673,-3.19501 -2.61195,-1.46652 -0.46793,3.29834 6.73026,11.34655 7.6574,8.56164 z m -6.50589,-12.07643 c 0.17384,-0.90271 -1.08715,-1.51098 -1.75268,-0.84545 -0.66553,0.66553 -0.0573,1.92652 0.84545,1.75268 0.4184,-0.0806 0.82665,-0.48883 0.90723,-0.90723 z"
           id="path1543" />
        <path
           style="fill:#ef8e02;stroke-width:0.436813"
           d="m 53.178242,143.29344 c -1.756744,-0.6317 -3.512935,-0.85787 -6.661398,-0.85787 -3.509409,0 -4.275694,-0.11743 -4.275694,-0.65522 0,-0.51521 0.606684,-0.65522 2.839284,-0.65522 1.585126,0 2.839284,-0.19127 2.839284,-0.43303 0,-0.23817 -0.666952,-1.30679 -1.482115,-2.37471 -2.22563,-2.91573 -3.107423,-5.60812 -3.08617,-9.42302 0.0225,-4.0391 1.35437,-7.23588 4.348116,-10.43643 l 2.025001,-2.16489 -1.625804,-1.79957 c -2.077309,-2.29933 -1.688812,-2.71843 2.753405,-2.97023 3.267487,-0.18522 3.466961,-0.14041 5.068276,1.13855 0.916806,0.73224 1.925646,1.23208 2.241866,1.11073 0.31622,-0.12135 1.204934,-1.00456 1.97492,-1.96271 1.13915,-1.41751 1.516774,-1.64514 2.026902,-1.22177 0.542548,0.45027 0.532947,0.66373 -0.07133,1.58597 -0.786499,1.20035 -0.565524,2.30553 0.460977,2.30553 0.375895,0 1.666499,0.49814 2.868001,1.10699 8.303159,4.20753 10.817324,15.07481 5.213122,22.5333 -0.961482,1.27961 -1.748147,2.4699 -1.748147,2.64508 0,0.17519 1.228537,0.37705 2.730081,0.44857 4.339811,0.20673 3.203652,0.9773 -1.856455,1.2591 -2.522595,0.14048 -5.551465,0.58275 -6.730821,0.98283 -2.849862,0.96676 -6.897391,0.90021 -9.851304,-0.16198 z m 2.953867,-4.00451 c 0.08843,-0.45919 -0.35737,-0.99206 -1.190323,-1.4228 -2.095563,-1.08365 -4.375082,-3.27682 -5.309428,-5.10829 -0.558081,-1.09393 -1.158239,-1.6794 -1.721518,-1.6794 -1.269639,0 -1.106905,1.63118 0.399751,4.00693 2.417881,3.8126 7.382924,6.48099 7.821518,4.20356 z m -7.775578,-10.85232 c 0,-1.1459 -0.841667,-1.50865 -1.642442,-0.70788 -0.551449,0.55145 -0.579628,0.81193 -0.144553,1.33616 0.680917,0.82045 1.786995,0.43157 1.786995,-0.62828 z m 45.05324,14.863 c -1.04729,-0.47522 -2.668958,-0.86404 -3.603707,-0.86404 -1.901076,0 -2.157695,-0.46287 -0.768136,-1.3855 0.919435,-0.61048 0.92113,-0.63786 0.131581,-2.12814 -1.195806,-2.25711 -1.083077,-5.84966 0.258607,-8.24161 1.502396,-2.67847 3.091871,-3.75161 5.556654,-3.75161 h 2.00809 l 0.794672,-3.27609 c 0.437071,-1.80186 1.105762,-4.10685 1.485977,-5.12221 0.927021,-2.47558 0.5996,-2.85445 -2.16799,-2.50866 -1.740412,0.21745 -2.400624,0.13181 -2.81284,-0.36488 -0.444501,-0.53559 -0.172755,-1.13349 1.554888,-3.4211 2.282794,-3.0227 2.860191,-3.29336 7.217053,-3.38311 2.46682,-0.0508 2.53194,-0.0205 3.88034,1.80477 1.9906,2.69464 4.64822,8.52832 5.62489,12.34704 1.04689,4.09333 1.11771,4.20721 2.41393,3.88188 2.7259,-0.68416 6.32052,3.9153 6.32052,8.08734 0,1.2365 -0.29343,2.95045 -0.65205,3.80877 -0.35864,0.85832 -0.53389,2.03141 -0.38947,2.60685 0.22605,0.90063 0.10626,1.04626 -0.86061,1.04626 -0.61777,0 -2.1206,0.39313 -3.33963,0.87363 -1.21902,0.48049 -2.98811,0.87362 -3.93131,0.87362 -0.94321,0 -2.7123,-0.39313 -3.93132,-0.87362 -1.21902,-0.4805 -2.69327,-0.87363 -3.2761,-0.87363 -0.58283,0 -2.05707,0.39313 -3.2761,0.87363 -2.798661,1.10313 -5.793403,1.09964 -8.237939,-0.01 z m 3.267846,-2.81095 c 0.24697,-0.64359 -3.750682,-5.04209 -4.582588,-5.04209 -1.305922,0 -0.504178,2.55122 1.32094,4.20332 1.643959,1.48813 2.889549,1.80844 3.261648,0.83877 z m 14.325853,0.37133 c 0.38002,-0.14582 0.69094,-0.43131 0.69094,-0.63442 0,-0.49402 -4.30378,-4.779 -4.79996,-4.779 -1.63707,0 -0.48945,3.1338 1.68994,4.61473 0.86106,0.58511 1.60214,1.06383 1.64685,1.06383 0.0447,0 0.39221,-0.11931 0.77223,-0.26514 z m -1.56513,-13.81095 1.93933,0.0844 -0.25893,-2.18625 c -0.44377,-3.74692 -4.72014,-13.08852 -5.99162,-13.08852 -1.25716,0 -4.68289,7.84073 -5.868633,13.432 -0.292944,1.38136 -0.261188,1.41964 1.177623,1.41964 0.88563,0 2.06385,0.43172 2.93769,1.07641 l 1.45901,1.07642 1.3331,-0.94925 c 0.95525,-0.6802 1.88277,-0.92533 3.27243,-0.86485 z m 35.51536,16.26206 c -1.45223,-0.66773 -2.82589,-0.87553 -5.78777,-0.87553 -3.1609,0 -3.88362,-0.12193 -3.88362,-0.65522 0,-0.50753 0.57433,-0.65522 2.54808,-0.65522 1.40144,0 2.66523,-0.11715 2.80843,-0.26035 0.14319,-0.14319 -0.42522,-1.21459 -1.26312,-2.3809 -2.12347,-2.95572 -3.22064,-6.33584 -3.21549,-9.90621 0.006,-3.86827 1.28722,-6.66247 4.29727,-9.36877 1.23786,-1.11294 2.25065,-2.18262 2.25065,-2.37708 0,-0.19445 -0.82639,-1.19558 -1.83642,-2.22473 -2.33407,-2.37824 -1.95307,-2.82524 2.63443,-3.09081 l 3.451,-0.19977 1.86314,1.68324 1.86315,1.68324 0.70809,-1.01054 c 1.95726,-2.79328 3.04901,-3.78254 3.58789,-3.25107 0.42222,0.41643 0.28142,0.91269 -0.66453,2.34212 -0.66015,0.99755 -1.03552,1.95518 -0.83414,2.12807 0.20137,0.17288 1.25067,0.56593 2.33178,0.87345 6.27385,1.78454 10.0467,6.54631 10.0467,12.68005 0,2.79144 -1.11161,6.79063 -2.64245,9.50655 -0.70887,1.25766 -1.28887,2.4862 -1.28887,2.73008 0,0.25076 1.13877,0.44343 2.62088,0.44343 2.03846,0 2.62088,0.14561 2.62088,0.65522 0,0.52803 -0.68102,0.65522 -3.50828,0.65522 -2.37805,0 -4.36231,0.2877 -6.15922,0.89304 -2.2345,0.75275 -2.89221,0.8134 -4.18687,0.38613 -1.41131,-0.46578 -3.37692,-0.38523 -5.58381,0.22882 -0.48049,0.13369 -1.73049,-0.15091 -2.77778,-0.63246 z m 2.85114,-3.31164 c 0.17308,-0.45106 -0.42507,-1.39352 -1.73271,-2.73008 -1.09837,-1.12267 -2.50772,-3.06564 -3.13189,-4.31771 -1.3385,-2.68501 -1.83257,-3.08085 -2.72785,-2.18557 -0.59501,0.59501 -0.54805,0.9194 0.44817,3.09543 1.28909,2.81574 4.84513,6.82679 6.05238,6.82679 0.45515,0 0.94651,-0.30999 1.0919,-0.68886 z m -6.40715,-12.19712 c 0,-0.78976 -0.23468,-1.09203 -0.84784,-1.09203 -0.46632,0 -0.97515,0.20598 -1.13074,0.45773 -0.46793,0.75712 0.14473,1.72633 1.09125,1.72633 0.65528,0 0.88733,-0.28558 0.88733,-1.09203 z"
           id="path1541" />
        <path
           style="fill:#91bd20;stroke-width:0.436813"
           d="m 52.081263,142.9556 c -2.242411,-0.7595 -3.642451,-1.49236 -3.931316,-2.05788 -0.246749,-0.48307 -0.983294,-1.57403 -1.636765,-2.42436 -2.265833,-2.9484 -3.142602,-5.55442 -3.14927,-9.36058 -0.0075,-4.2669 1.249208,-7.3552 4.335637,-10.65484 l 2.025001,-2.16489 -1.625804,-1.79957 c -2.077309,-2.29933 -1.688812,-2.71843 2.753405,-2.97023 3.267487,-0.18522 3.466961,-0.14041 5.068276,1.13855 0.916806,0.73224 1.925646,1.23208 2.241866,1.11073 0.31622,-0.12135 1.204934,-1.00456 1.97492,-1.96271 1.13915,-1.41751 1.516774,-1.64514 2.026902,-1.22177 0.542548,0.45027 0.532947,0.66373 -0.07133,1.58597 -0.786499,1.20035 -0.565524,2.30553 0.460977,2.30553 0.375895,0 1.666499,0.49814 2.868001,1.10699 8.291269,4.20151 10.799135,14.98844 5.24152,22.54505 -0.945858,1.28608 -2.036549,2.7806 -2.423758,3.32115 -0.387204,0.54056 -1.038824,0.98925 -1.448039,0.99709 -0.40922,0.008 -1.825144,0.39456 -3.146504,0.85937 -3.446565,1.21238 -7.286875,1.09495 -11.563722,-0.3536 z m 10.232967,-2.26673 c 2.198506,-1.13554 4.626086,-3.79665 5.715602,-6.26545 l 0.933452,-2.11517 -0.911895,-0.97067 c -1.141511,-1.21508 -1.151055,-1.84964 -0.03826,-2.54458 2.635218,-1.64572 -1.671006,-10.08586 -5.982158,-11.72496 -1.37517,-0.52284 -1.880484,-0.2012 -1.880484,1.19693 0,0.8484 0.168923,1.04816 0.710584,0.84031 0.89559,-0.34367 1.910293,0.47065 1.910293,1.53306 0,2.69516 -7.694231,2.9884 -8.539416,0.32546 -0.346026,-1.09023 0.603037,-2.2373 1.629098,-1.96898 0.437215,0.11433 0.794937,0.0388 0.794937,-0.16789 0,-0.20667 -1.296714,-0.30509 -2.881586,-0.21871 -2.452096,0.13366 -3.076668,0.34224 -4.190455,1.3995 -2.978084,2.82691 -4.520661,8.2894 -3.454108,12.23148 1.16853,4.31898 4.97806,8.06742 9.282601,9.13372 2.67149,0.66177 4.681928,0.46251 6.9018,-0.68405 z m 2.058778,-5.53351 c -0.572085,-0.57208 -0.277223,-1.86961 0.522075,-2.29738 1.179225,-0.6311 2.448524,0.3837 2.050094,1.63904 -0.291686,0.91903 -1.899874,1.33063 -2.572169,0.65834 z m -0.56486,-5.59221 c -0.132315,-0.34482 -0.118582,-0.82434 0.03053,-1.0656 0.357051,-0.57773 1.553556,-0.1039 1.553556,0.61523 0,0.82067 -1.300143,1.19031 -1.584089,0.45037 z m 0.751131,-4.33269 c -0.704807,-0.84924 0.100178,-2.45147 1.231655,-2.45147 1.198471,0 2.05932,1.21419 1.497019,2.11148 -0.60579,0.96669 -2.058354,1.14768 -2.728674,0.33999 z m 28.850492,18.06915 c -1.04729,-0.47522 -2.668958,-0.86404 -3.603707,-0.86404 -1.901076,0 -2.157695,-0.46287 -0.768136,-1.3855 0.919435,-0.61048 0.92113,-0.63786 0.131581,-2.12814 -1.195806,-2.25711 -1.083077,-5.84966 0.258607,-8.24161 1.502396,-2.67847 3.091871,-3.75161 5.556654,-3.75161 h 2.00809 l 0.794672,-3.27609 c 0.437071,-1.80186 1.105762,-4.10685 1.485977,-5.12221 0.927021,-2.47558 0.5996,-2.85445 -2.16799,-2.50866 -1.740412,0.21745 -2.400624,0.13181 -2.81284,-0.36488 -0.444501,-0.53559 -0.172755,-1.13349 1.554888,-3.4211 2.282794,-3.0227 2.860191,-3.29336 7.217053,-3.38311 2.46682,-0.0508 2.53194,-0.0205 3.88034,1.80477 1.9906,2.69464 4.64822,8.52832 5.62489,12.34704 1.04689,4.09333 1.11771,4.20721 2.41393,3.88188 2.7259,-0.68416 6.32052,3.9153 6.32052,8.08734 0,1.2365 -0.29343,2.95045 -0.65205,3.80877 -0.35864,0.85832 -0.53389,2.03141 -0.38947,2.60685 0.22605,0.90063 0.10626,1.04626 -0.86061,1.04626 -0.61777,0 -2.1206,0.39313 -3.33963,0.87363 -1.21902,0.48049 -2.98811,0.87362 -3.93131,0.87362 -0.94321,0 -2.7123,-0.39313 -3.93132,-0.87362 -1.21902,-0.4805 -2.69327,-0.87363 -3.2761,-0.87363 -0.58283,0 -2.05707,0.39313 -3.2761,0.87363 -2.798661,1.10313 -5.793403,1.09964 -8.237939,-0.01 z m 3.267846,-2.81095 c 0.24697,-0.64359 -3.750682,-5.04209 -4.582588,-5.04209 -1.305922,0 -0.504178,2.55122 1.32094,4.20332 1.643959,1.48813 2.889549,1.80844 3.261648,0.83877 z m 14.325853,0.37133 c 0.38002,-0.14582 0.69094,-0.43131 0.69094,-0.63442 0,-0.49402 -4.30378,-4.779 -4.79996,-4.779 -1.63707,0 -0.48945,3.1338 1.68994,4.61473 0.86106,0.58511 1.60214,1.06383 1.64685,1.06383 0.0447,0 0.39221,-0.11931 0.77223,-0.26514 z m -1.56513,-13.81095 1.93933,0.0844 -0.25893,-2.18625 c -0.44377,-3.74692 -4.72014,-13.08852 -5.99162,-13.08852 -1.25716,0 -4.68289,7.84073 -5.868633,13.432 -0.292944,1.38136 -0.261188,1.41964 1.177623,1.41964 0.88563,0 2.06385,0.43172 2.93769,1.07641 l 1.45901,1.07642 1.3331,-0.94925 c 0.95525,-0.6802 1.88277,-0.92533 3.27243,-0.86485 z m 35.51536,16.26206 c -1.45223,-0.66773 -2.82589,-0.87553 -5.78777,-0.87553 -3.1609,0 -3.88362,-0.12193 -3.88362,-0.65522 0,-0.50753 0.57433,-0.65522 2.54808,-0.65522 1.40144,0 2.66523,-0.11715 2.80843,-0.26035 0.14319,-0.14319 -0.42522,-1.21459 -1.26312,-2.3809 -2.12347,-2.95572 -3.22064,-6.33584 -3.21549,-9.90621 0.006,-3.86827 1.28722,-6.66247 4.29727,-9.36877 1.23786,-1.11294 2.25065,-2.18262 2.25065,-2.37708 0,-0.19445 -0.82639,-1.19558 -1.83642,-2.22473 -2.33407,-2.37824 -1.95307,-2.82524 2.63443,-3.09081 l 3.451,-0.19977 1.86314,1.68324 1.86315,1.68324 0.70809,-1.01054 c 1.95726,-2.79328 3.04901,-3.78254 3.58789,-3.25107 0.42222,0.41643 0.28142,0.91269 -0.66453,2.34212 -0.66015,0.99755 -1.03552,1.95518 -0.83414,2.12807 0.20137,0.17288 1.25067,0.56593 2.33178,0.87345 6.27385,1.78454 10.0467,6.54631 10.0467,12.68005 0,2.79144 -1.11161,6.79063 -2.64245,9.50655 -0.70887,1.25766 -1.28887,2.4862 -1.28887,2.73008 0,0.25076 1.13877,0.44343 2.62088,0.44343 2.03846,0 2.62088,0.14561 2.62088,0.65522 0,0.52803 -0.68102,0.65522 -3.50828,0.65522 -2.37805,0 -4.36231,0.2877 -6.15922,0.89304 -2.2345,0.75275 -2.89221,0.8134 -4.18687,0.38613 -1.41131,-0.46578 -3.37692,-0.38523 -5.58381,0.22882 -0.48049,0.13369 -1.73049,-0.15091 -2.77778,-0.63246 z m 2.85114,-3.31164 c 0.17308,-0.45106 -0.42507,-1.39352 -1.73271,-2.73008 -1.09837,-1.12267 -2.50772,-3.06564 -3.13189,-4.31771 -1.3385,-2.68501 -1.83257,-3.08085 -2.72785,-2.18557 -0.59501,0.59501 -0.54805,0.9194 0.44817,3.09543 1.28909,2.81574 4.84513,6.82679 6.05238,6.82679 0.45515,0 0.94651,-0.30999 1.0919,-0.68886 z m -6.40715,-12.19712 c 0,-0.78976 -0.23468,-1.09203 -0.84784,-1.09203 -0.46632,0 -0.97515,0.20598 -1.13074,0.45773 -0.46793,0.75712 0.14473,1.72633 1.09125,1.72633 0.65528,0 0.88733,-0.28558 0.88733,-1.09203 z"
           id="path1539" />
        <path
           style="fill:#de650c;stroke-width:0.436813"
           d="m 52.206654,142.9628 c -3.569524,-1.25719 -4.020316,-1.67793 -6.88318,-6.4242 -3.482772,-5.77401 -2.555732,-12.80816 2.383989,-18.08912 l 2.017087,-2.15643 -1.625804,-1.79957 c -2.077309,-2.29933 -1.688812,-2.71843 2.753405,-2.97023 3.267487,-0.18522 3.466961,-0.14041 5.068276,1.13855 0.916806,0.73224 1.925646,1.23208 2.241866,1.11073 0.31622,-0.12135 1.204934,-1.00456 1.97492,-1.96271 1.13915,-1.41751 1.516774,-1.64514 2.026902,-1.22177 0.542548,0.45027 0.532947,0.66373 -0.07133,1.58597 -0.786499,1.20035 -0.565524,2.30553 0.460977,2.30553 1.304909,0 5.062427,2.2241 6.851547,4.05548 3.676026,3.76285 5.165711,9.73183 3.693057,14.79758 -0.729503,2.50941 -4.941084,8.74282 -6.022065,8.91305 -0.325618,0.0513 -1.814368,0.50812 -3.308334,1.0152 -3.768914,1.27924 -7.344675,1.18706 -11.561316,-0.29806 z m 10.107576,-2.27393 c 2.198506,-1.13554 4.626086,-3.79665 5.715602,-6.26545 l 0.933452,-2.11517 -0.911895,-0.97067 c -1.141511,-1.21508 -1.151055,-1.84964 -0.03826,-2.54458 2.635218,-1.64572 -1.671006,-10.08586 -5.982158,-11.72496 -1.37517,-0.52284 -1.880484,-0.2012 -1.880484,1.19693 0,0.8484 0.168923,1.04816 0.710584,0.84031 0.89559,-0.34367 1.910293,0.47065 1.910293,1.53306 0,2.69516 -7.694231,2.9884 -8.539416,0.32546 -0.346026,-1.09023 0.603037,-2.2373 1.629098,-1.96898 0.437215,0.11433 0.794937,0.0388 0.794937,-0.16789 0,-0.20667 -1.296714,-0.30509 -2.881586,-0.21871 -2.452096,0.13366 -3.076668,0.34224 -4.190455,1.3995 -2.978084,2.82691 -4.520661,8.2894 -3.454108,12.23148 1.16853,4.31898 4.97806,8.06742 9.282601,9.13372 2.67149,0.66177 4.681928,0.46251 6.9018,-0.68405 z m 2.058778,-5.53351 c -0.572085,-0.57208 -0.277223,-1.86961 0.522075,-2.29738 1.179225,-0.6311 2.448524,0.3837 2.050094,1.63904 -0.291686,0.91903 -1.899874,1.33063 -2.572169,0.65834 z m -0.56486,-5.59221 c -0.132315,-0.34482 -0.118582,-0.82434 0.03053,-1.0656 0.357051,-0.57773 1.553556,-0.1039 1.553556,0.61523 0,0.82067 -1.300143,1.19031 -1.584089,0.45037 z m 0.751131,-4.33269 c -0.704807,-0.84924 0.100178,-2.45147 1.231655,-2.45147 1.198471,0 2.05932,1.21419 1.497019,2.11148 -0.60579,0.96669 -2.058354,1.14768 -2.728674,0.33999 z m 28.850492,18.06915 c -1.04729,-0.47522 -2.668958,-0.86404 -3.603707,-0.86404 -1.901076,0 -2.157695,-0.46287 -0.768136,-1.3855 0.919435,-0.61048 0.92113,-0.63786 0.131581,-2.12814 -1.195806,-2.25711 -1.083077,-5.84966 0.258607,-8.24161 1.502396,-2.67847 3.091871,-3.75161 5.556654,-3.75161 h 2.00809 l 0.794672,-3.27609 c 0.437071,-1.80186 1.105762,-4.10685 1.485977,-5.12221 0.927021,-2.47558 0.5996,-2.85445 -2.16799,-2.50866 -1.740412,0.21745 -2.400624,0.13181 -2.81284,-0.36488 -0.444501,-0.53559 -0.172755,-1.13349 1.554888,-3.4211 2.282794,-3.0227 2.860191,-3.29336 7.217053,-3.38311 2.46682,-0.0508 2.53194,-0.0205 3.88034,1.80477 1.9906,2.69464 4.64822,8.52832 5.62489,12.34704 1.04689,4.09333 1.11771,4.20721 2.41393,3.88188 2.7259,-0.68416 6.32052,3.9153 6.32052,8.08734 0,1.2365 -0.29343,2.95045 -0.65205,3.80877 -0.35864,0.85832 -0.53389,2.03141 -0.38947,2.60685 0.22605,0.90063 0.10626,1.04626 -0.86061,1.04626 -0.61777,0 -2.1206,0.39313 -3.33963,0.87363 -1.21902,0.48049 -2.98811,0.87362 -3.93131,0.87362 -0.94321,0 -2.7123,-0.39313 -3.93132,-0.87362 -1.21902,-0.4805 -2.69327,-0.87363 -3.2761,-0.87363 -0.58283,0 -2.05707,0.39313 -3.2761,0.87363 -2.798661,1.10313 -5.793403,1.09964 -8.237939,-0.01 z m 3.267846,-2.81095 c 0.24697,-0.64359 -3.750682,-5.04209 -4.582588,-5.04209 -1.305922,0 -0.504178,2.55122 1.32094,4.20332 1.643959,1.48813 2.889549,1.80844 3.261648,0.83877 z m 14.325853,0.37133 c 0.38002,-0.14582 0.69094,-0.43131 0.69094,-0.63442 0,-0.49402 -4.30378,-4.779 -4.79996,-4.779 -1.63707,0 -0.48945,3.1338 1.68994,4.61473 0.86106,0.58511 1.60214,1.06383 1.64685,1.06383 0.0447,0 0.39221,-0.11931 0.77223,-0.26514 z m -1.56513,-13.81095 1.93933,0.0844 -0.25893,-2.18625 c -0.44377,-3.74692 -4.72014,-13.08852 -5.99162,-13.08852 -1.25716,0 -4.68289,7.84073 -5.868633,13.432 -0.292944,1.38136 -0.261188,1.41964 1.177623,1.41964 0.88563,0 2.06385,0.43172 2.93769,1.07641 l 1.45901,1.07642 1.3331,-0.94925 c 0.95525,-0.6802 1.88277,-0.92533 3.27243,-0.86485 z m 34.79864,15.90249 c -6.34812,-3.03233 -10.00999,-13.17261 -7.05133,-19.52618 0.58544,-1.25718 1.98156,-3.05638 3.27183,-4.21645 1.23786,-1.11294 2.25065,-2.18262 2.25065,-2.37708 0,-0.19445 -0.82639,-1.19558 -1.83642,-2.22473 -2.33407,-2.37824 -1.95307,-2.82524 2.63443,-3.09081 l 3.451,-0.19977 1.86314,1.68324 1.86315,1.68324 0.70809,-1.01054 c 1.95726,-2.79328 3.04901,-3.78254 3.58789,-3.25107 0.42222,0.41643 0.28142,0.91269 -0.66453,2.34212 -0.66015,0.99755 -1.03552,1.95518 -0.83414,2.12807 0.20137,0.17288 1.25067,0.56593 2.33178,0.87345 3.14568,0.89476 5.00931,2.02931 6.94429,4.22755 4.22645,4.80151 4.02771,12.67913 -0.49458,19.60372 -1.67973,2.57204 -4.68863,4.31039 -7.2353,4.1801 -4.3008,-0.22004 -6.07485,-0.19419 -7.07704,0.10312 -0.79011,0.23438 -1.81666,-0.0222 -3.71291,-0.92798 z m 5.40583,-1.81082 c 1.0042,-0.28799 2.07276,-0.25968 3.37845,0.0895 1.86108,0.49776 1.94756,0.47407 3.39702,-0.9308 2.16748,-2.10081 4.19368,-6.792 4.49138,-10.39875 0.3929,-4.76007 -0.89453,-7.99487 -4.25922,-10.70177 -1.93866,-1.55966 -4.11401,-1.86087 -4.11401,-0.56966 0,0.6707 0.24225,0.83951 1.04298,0.72677 0.9456,-0.13314 1.77235,0.49261 1.78961,1.35451 0.0124,0.61823 -2.82145,2.06516 -4.04786,2.06681 -0.66839,8.7e-4 -1.91114,-0.28912 -2.76165,-0.64449 -1.21832,-0.50905 -1.51653,-0.85656 -1.40562,-1.63805 0.1021,-0.71935 0.47799,-1.03059 1.36791,-1.13264 2.05113,-0.23521 1.10503,-1.16328 -1.02882,-1.00922 -3.55659,0.2568 -7.0918,2.95938 -8.60337,6.57708 -1.3573,3.24849 -0.007,9.53191 2.75385,12.81277 2.92406,3.47505 4.86123,4.29791 7.99935,3.3979 z"
           id="path1537" />
        <path
           style="fill:#615e59;stroke-width:0.436813"
           d="m 52.817064,143.17544 c -3.455135,-1.22232 -6.160821,-3.79969 -8.078804,-7.69567 -1.233811,-2.50622 -1.403578,-3.28119 -1.392774,-6.3578 0.01503,-4.27903 1.280284,-7.37791 4.354063,-10.66403 l 2.025001,-2.16489 -1.625804,-1.79957 c -2.077309,-2.29933 -1.688812,-2.71843 2.753405,-2.97023 3.267487,-0.18522 3.466961,-0.14041 5.068276,1.13855 0.916806,0.73224 1.925646,1.23208 2.241866,1.11073 0.31622,-0.12135 1.204934,-1.00456 1.97492,-1.96271 1.13915,-1.41751 1.516774,-1.64514 2.026902,-1.22177 0.542548,0.45027 0.532947,0.66373 -0.07133,1.58597 -0.786499,1.20035 -0.565524,2.30553 0.460977,2.30553 1.304909,0 5.062427,2.2241 6.851547,4.05548 0.989452,1.01282 2.309518,2.9226 2.933483,4.24396 0.959438,2.03178 1.134482,3.00905 1.134482,6.33379 0,3.40253 -0.161236,4.25962 -1.198719,6.37218 -0.659295,1.34248 -2.133539,3.41319 -3.276098,4.60159 -3.735672,3.88554 -10.356785,5.14946 -16.181396,3.08889 z m 9.237739,-1.62806 c 3.17148,-1.1866 6.068354,-3.81909 7.571834,-6.88077 1.623913,-3.30693 1.688806,-7.49715 0.169024,-10.91357 -1.252347,-2.81524 -5.031591,-6.41313 -7.519276,-7.15846 -2.004158,-0.60046 -2.544228,-0.19362 -2.556028,1.92549 -0.0055,0.98419 0.185967,1.20123 1.059565,1.20123 1.527795,0 1.865945,0.87558 0.70211,1.818 -1.419146,1.14915 -4.966574,1.09917 -6.152426,-0.0867 -1.053769,-1.05377 -0.781026,-1.73132 0.696932,-1.73132 0.775044,0 1.066253,-0.2386 1.066253,-0.87362 0,-0.79074 -0.291209,-0.87363 -3.069186,-0.87363 -3.038716,0 -3.088021,0.0188 -4.966331,1.89714 -5.536016,5.53602 -4.767894,15.393 1.540181,19.7645 2.073404,1.43687 5.737594,2.76588 7.680185,2.78562 0.771791,0.008 2.471515,-0.38543 3.777163,-0.87393 z m 31.354968,1.75223 c -1.04729,-0.47522 -2.46079,-0.86404 -3.141118,-0.86404 -1.494774,0 -2.02534,-0.66232 -0.993256,-1.2399 0.703964,-0.39396 0.69777,-0.53694 -0.100017,-2.30829 -2.429125,-5.39347 0.760168,-11.95867 5.80939,-11.95867 h 2.00809 l 0.794672,-3.27609 c 0.437071,-1.80186 1.105762,-4.10685 1.485977,-5.12221 0.927021,-2.47558 0.5996,-2.85445 -2.16799,-2.50866 -1.740412,0.21745 -2.400624,0.13181 -2.81284,-0.36488 -0.444501,-0.53559 -0.172755,-1.13349 1.554888,-3.4211 2.282794,-3.0227 2.860191,-3.29336 7.217053,-3.38311 2.46682,-0.0508 2.53194,-0.0205 3.88034,1.80477 1.9906,2.69464 4.64822,8.52832 5.62489,12.34704 1.04689,4.09333 1.11771,4.20721 2.41393,3.88188 2.71737,-0.68202 6.32052,3.91531 6.32052,8.06447 0,1.22393 -0.30811,2.99535 -0.68468,3.9365 -0.37658,0.94115 -0.62228,2.07538 -0.54602,2.52051 0.0989,0.57712 -0.16951,0.85282 -0.9354,0.96088 -0.59074,0.0833 -2.02312,0.52562 -3.18307,0.98282 -2.70178,1.06495 -4.97754,1.05253 -7.75522,-0.0423 -1.21902,-0.4805 -2.69327,-0.87363 -3.2761,-0.87363 -0.58283,0 -2.05707,0.39313 -3.2761,0.87363 -2.798661,1.10313 -5.793403,1.09964 -8.237939,-0.01 z m 3.701522,-2.80278 c 0.147276,-0.3838 -0.718483,-1.5879 -2.224684,-3.0941 -2.605192,-2.60519 -3.722406,-2.85324 -3.722406,-0.82645 0,2.5328 5.171394,5.94199 5.94709,3.92055 z m 14.739887,-0.0238 c 0.23266,-0.60629 -1.22643,-2.40558 -1.95076,-2.40558 -0.17535,0 -0.74401,-0.68798 -1.2637,-1.52884 -1.01469,-1.64181 -1.76737,-1.90205 -2.59989,-0.89892 -0.41096,0.49518 -0.36668,0.95891 0.20697,2.16779 1.20605,2.54155 4.96862,4.33016 5.60738,2.66557 z m -2.41284,-13.424 1.93933,0.0844 -0.25893,-2.18625 c -0.44377,-3.7469 -4.72014,-13.0885 -5.99162,-13.0885 -1.25716,0 -4.68289,7.84073 -5.868633,13.432 -0.292944,1.38136 -0.261188,1.41964 1.177623,1.41964 0.88563,0 2.06385,0.43172 2.93769,1.07641 l 1.45901,1.07642 1.3331,-0.94925 c 0.95525,-0.6802 1.88277,-0.92533 3.27243,-0.86485 z m 34.79864,15.90251 c -6.34812,-3.03233 -10.00999,-13.17261 -7.05133,-19.52618 0.58544,-1.25718 1.98156,-3.05638 3.27183,-4.21645 1.23786,-1.11294 2.25065,-2.18262 2.25065,-2.37708 0,-0.19445 -0.82639,-1.19558 -1.83642,-2.22473 -2.33407,-2.37824 -1.95307,-2.82524 2.63443,-3.09081 l 3.451,-0.19977 1.86314,1.68324 1.86315,1.68324 0.70809,-1.01054 c 1.95726,-2.79328 3.04901,-3.78254 3.58789,-3.25107 0.42222,0.41643 0.28142,0.91269 -0.66453,2.34212 -0.66015,0.99755 -1.03552,1.95518 -0.83414,2.12807 0.20137,0.17288 1.25067,0.56593 2.33178,0.87345 3.14568,0.89476 5.00931,2.02931 6.94429,4.22755 4.22645,4.80151 4.02771,12.67913 -0.49458,19.60372 -1.67973,2.57204 -4.68863,4.31039 -7.2353,4.1801 -4.3008,-0.22004 -6.07485,-0.19419 -7.07704,0.10312 -0.79011,0.23438 -1.81666,-0.0222 -3.71291,-0.92798 z m 5.40583,-1.81082 c 1.0042,-0.28799 2.07276,-0.25968 3.37845,0.0895 1.86108,0.49776 1.94756,0.47407 3.39702,-0.9308 2.16748,-2.10081 4.19368,-6.792 4.49138,-10.39875 0.3929,-4.76007 -0.89453,-7.99487 -4.25922,-10.70177 -1.93866,-1.55966 -4.11401,-1.86087 -4.11401,-0.56966 0,0.6707 0.24225,0.83951 1.04298,0.72677 0.9456,-0.13314 1.77235,0.49261 1.78961,1.35451 0.0124,0.61823 -2.82145,2.06516 -4.04786,2.06681 -0.66839,8.7e-4 -1.91114,-0.28912 -2.76165,-0.64449 -1.21832,-0.50905 -1.51653,-0.85656 -1.40562,-1.63805 0.1021,-0.71935 0.47799,-1.03059 1.36791,-1.13264 2.05113,-0.23521 1.10503,-1.16328 -1.02882,-1.00922 -3.55659,0.2568 -7.0918,2.95938 -8.60337,6.57708 -1.3573,3.24849 -0.007,9.53191 2.75385,12.81277 2.92406,3.47505 4.86123,4.29791 7.99935,3.3979 z"
           id="path1535" />
        <path
           style="fill:#49962c;stroke-width:0.436813"
           d="m 52.562203,142.71877 c -2.567451,-0.82833 -3.255847,-1.28226 -4.758074,-3.13749 -2.927456,-3.61538 -4.001041,-6.41193 -4.018819,-10.4685 -0.01865,-4.25458 1.234298,-7.32278 4.351052,-10.65484 l 2.025001,-2.16489 -1.618894,-1.79192 c -0.890391,-0.98556 -1.505893,-1.90492 -1.367781,-2.04304 0.138111,-0.13811 1.492497,-0.40322 3.009746,-0.58913 2.940193,-0.36027 4.864176,0.10661 5.979013,1.45089 0.895331,1.0796 2.976082,0.92898 3.590983,-0.25995 0.770316,-1.48941 1.778027,-2.51902 2.206366,-2.25429 0.210714,0.13023 0.08616,0.66075 -0.276786,1.17893 -0.800408,1.14274 -0.862119,2.49488 -0.113886,2.49535 1.564113,8.8e-4 5.97533,2.67627 7.848922,4.76015 4.699662,5.22716 5.139886,13.15124 1.02976,18.5358 -0.810017,1.06118 -1.692231,2.33951 -1.960478,2.84073 -0.700329,1.30858 -6.729291,3.13791 -10.216851,3.10004 -1.522977,-0.0166 -4.020804,-0.4531 -5.709274,-0.99784 z m 9.4926,-1.17139 c 3.17148,-1.1866 6.068354,-3.81909 7.571834,-6.88077 1.623913,-3.30693 1.688806,-7.49715 0.169024,-10.91357 -1.252347,-2.81524 -5.031591,-6.41313 -7.519276,-7.15846 -2.004158,-0.60046 -2.544228,-0.19362 -2.556028,1.92549 -0.0055,0.98419 0.185967,1.20123 1.059565,1.20123 1.527795,0 1.865945,0.87558 0.70211,1.818 -1.419146,1.14915 -4.966574,1.09917 -6.152426,-0.0867 -1.053769,-1.05377 -0.781026,-1.73132 0.696932,-1.73132 0.775044,0 1.066253,-0.2386 1.066253,-0.87362 0,-0.79074 -0.291209,-0.87363 -3.069186,-0.87363 -3.038716,0 -3.088021,0.0188 -4.966331,1.89714 -5.536016,5.53602 -4.767894,15.393 1.540181,19.7645 2.073404,1.43687 5.737594,2.76588 7.680185,2.78562 0.771791,0.008 2.471515,-0.38543 3.777163,-0.87393 z m 31.78933,1.52631 c -0.808388,-0.35096 -2.200729,-0.63812 -3.09409,-0.63812 -2.07069,0 -2.495513,-0.43362 -1.304774,-1.3318 0.926826,-0.6991 0.92915,-0.73294 0.15126,-2.20078 -1.128161,-2.12878 -1.042904,-5.80517 0.18945,-8.1693 1.31776,-2.52797 3.173197,-3.62319 5.579386,-3.29338 l 1.850908,0.25369 0.473479,-1.91149 c 0.26041,-1.05131 0.883838,-3.28745 1.385387,-4.96918 0.501553,-1.68173 0.941571,-3.5491 0.977821,-4.14972 0.0644,-1.06624 0.002,-1.08911 -2.629537,-0.9685 -1.4825,0.0679 -2.804929,-0.0536 -2.938738,-0.27012 -0.133809,-0.21651 0.534654,-1.48003 1.485474,-2.80783 1.979103,-2.76379 3.26488,-3.37937 7.058601,-3.37937 h 2.56112 l 1.58483,2.47748 c 2.28153,3.5666 4.01173,7.59157 5.1131,11.89456 l 0.96129,3.7557 h 1.80725 c 4.35166,0 7.31399,6.64713 5.06455,11.36426 -0.58577,1.22836 -0.63835,1.73893 -0.24412,2.3702 0.6423,1.02848 0.31321,1.33558 -1.43122,1.33558 -0.77149,0 -2.10837,0.29485 -2.97086,0.65522 -1.99798,0.83481 -5.21213,0.84076 -6.81358,0.0126 -1.70143,-0.87985 -5.57066,-0.90949 -7.54539,-0.0578 -2.004331,0.86444 -5.315771,0.87724 -7.271597,0.0281 z m 3.26716,-2.57686 c 0.147276,-0.3838 -0.718483,-1.5879 -2.224684,-3.0941 -2.605192,-2.60519 -3.722406,-2.85324 -3.722406,-0.82645 0,2.5328 5.171394,5.94199 5.94709,3.92055 z m 14.739887,-0.0238 c 0.23266,-0.60629 -1.22643,-2.40558 -1.95076,-2.40558 -0.17535,0 -0.74401,-0.68798 -1.2637,-1.52884 -1.01469,-1.64181 -1.76737,-1.90205 -2.59989,-0.89892 -0.41096,0.49518 -0.36668,0.95891 0.20697,2.16779 1.20605,2.54155 4.96862,4.33016 5.60738,2.66557 z M 106.42981,128.256 c 1.21301,-0.89494 1.77644,-1.03144 3.36096,-0.81426 l 1.90364,0.26093 v -1.53246 c 0,-2.89293 -3.12648,-10.94494 -5.44466,-14.02233 -0.33262,-0.44153 -0.96358,-0.73437 -1.40216,-0.65074 -1.11081,0.21182 -3.81662,5.79537 -5.207923,10.74678 -1.256719,4.47245 -1.087092,5.31125 1.016923,5.02871 0.82157,-0.11033 1.62986,0.18873 2.51997,0.93235 0.72074,0.60213 1.41967,1.10185 1.55318,1.11049 0.13352,0.009 0.89854,-0.46812 1.70007,-1.05947 z m 37.91892,14.45709 c -2.26642,-0.87735 -4.09091,-2.02476 -3.2196,-2.02476 0.18863,0 -0.37492,-0.97796 -1.25233,-2.17324 -4.86151,-6.6227 -4.43899,-14.55934 1.02565,-19.26541 1.23314,-1.06196 2.24216,-2.11997 2.24228,-2.35112 1.2e-4,-0.23115 -0.82293,-1.259 -1.82899,-2.28411 -1.00607,-1.0251 -1.67842,-2.01463 -1.49411,-2.19893 0.18431,-0.18431 1.86952,-0.40479 3.74493,-0.48996 3.38843,-0.15388 3.42073,-0.14498 5.15075,1.41798 0.95751,0.86506 1.94414,1.57283 2.1925,1.57283 0.24837,0 0.964,-0.87439 1.59029,-1.94308 1.23389,-2.10547 1.81045,-2.65152 2.1757,-2.06056 0.12874,0.20832 -0.25081,1.03597 -0.84345,1.83924 -0.59263,0.80328 -1.07752,1.69801 -1.07752,1.98831 0,0.29029 1.33862,0.93441 2.97472,1.43135 9.78463,2.97199 12.42392,11.79089 6.71854,22.44925 -1.60318,2.99493 -1.73438,3.117 -4.43567,4.12722 -2.52092,0.94276 -2.98053,0.99053 -4.87006,0.50627 -1.61339,-0.4135 -2.47479,-0.41839 -3.79933,-0.0215 -2.1236,0.63625 -1.96589,0.65266 -4.9943,-0.51971 z m 5.29408,-1.57239 c 1.0042,-0.288 2.07276,-0.25968 3.37845,0.0895 1.86108,0.49776 1.94756,0.47407 3.39702,-0.9308 2.16748,-2.10081 4.19368,-6.792 4.49138,-10.39875 0.3929,-4.76007 -0.89453,-7.99487 -4.25922,-10.70177 -1.93866,-1.55964 -4.11401,-1.86085 -4.11401,-0.56964 0,0.6707 0.24225,0.83951 1.04298,0.72677 0.9456,-0.13314 1.77235,0.49261 1.78961,1.35451 0.0124,0.61823 -2.82145,2.06516 -4.04786,2.06681 -0.66839,8.7e-4 -1.91114,-0.28912 -2.76165,-0.64449 -1.21832,-0.50905 -1.51653,-0.85656 -1.40562,-1.63805 0.1021,-0.71935 0.47799,-1.03059 1.36791,-1.13264 2.05113,-0.23521 1.10503,-1.16328 -1.02882,-1.00922 -3.55659,0.2568 -7.0918,2.95938 -8.60337,6.57708 -1.3573,3.24849 -0.007,9.53191 2.75385,12.81277 2.92406,3.47505 4.86123,4.29791 7.99935,3.3979 z"
           id="path1533" />
        <path
           style="fill:#da0a15;stroke-width:0.436813"
           d="m 52.562203,142.71877 c -2.567451,-0.82833 -3.255847,-1.28226 -4.758074,-3.13749 -2.927456,-3.61538 -4.001041,-6.41193 -4.018819,-10.4685 -0.01865,-4.25458 1.234298,-7.32278 4.351052,-10.65484 l 2.025001,-2.16489 -1.618894,-1.79192 c -0.890391,-0.98556 -1.505893,-1.90492 -1.367781,-2.04304 0.138111,-0.13811 1.492497,-0.40322 3.009746,-0.58913 2.940193,-0.36027 4.864176,0.10661 5.979013,1.45089 0.895331,1.0796 2.976082,0.92898 3.590983,-0.25995 0.770316,-1.48941 1.778027,-2.51902 2.206366,-2.25429 0.210714,0.13023 0.08616,0.66075 -0.276786,1.17893 -0.800408,1.14274 -0.862119,2.49488 -0.113886,2.49535 1.564113,8.8e-4 5.97533,2.67627 7.848922,4.76015 4.699662,5.22716 5.139886,13.15124 1.02976,18.5358 -0.810017,1.06118 -1.692231,2.33951 -1.960478,2.84073 -0.700329,1.30858 -6.729291,3.13791 -10.216851,3.10004 -1.522977,-0.0166 -4.020804,-0.4531 -5.709274,-0.99784 z m 9.4926,-1.17139 c 3.17148,-1.1866 6.068354,-3.81909 7.571834,-6.88077 1.623913,-3.30693 1.688806,-7.49715 0.169024,-10.91357 -1.252347,-2.81524 -5.031591,-6.41313 -7.519276,-7.15846 -2.004158,-0.60046 -2.544228,-0.19362 -2.556028,1.92549 -0.0055,0.98419 0.185967,1.20123 1.059565,1.20123 1.527795,0 1.865945,0.87558 0.70211,1.818 -1.419146,1.14915 -4.966574,1.09917 -6.152426,-0.0867 -1.053769,-1.05377 -0.781026,-1.73132 0.696932,-1.73132 0.775044,0 1.066253,-0.2386 1.066253,-0.87362 0,-0.79074 -0.291209,-0.87363 -3.069186,-0.87363 -3.038716,0 -3.088021,0.0188 -4.966331,1.89714 -5.536016,5.53602 -4.767894,15.393 1.540181,19.7645 2.073404,1.43687 5.737594,2.76588 7.680185,2.78562 0.771791,0.008 2.471515,-0.38543 3.777163,-0.87393 z m 31.78933,1.52631 c -0.808388,-0.35096 -2.200729,-0.63812 -3.09409,-0.63812 -2.07069,0 -2.495513,-0.43362 -1.304774,-1.3318 0.926826,-0.6991 0.92915,-0.73294 0.15126,-2.20078 -1.128161,-2.12878 -1.042904,-5.80517 0.18945,-8.1693 1.31776,-2.52797 3.173197,-3.62319 5.579386,-3.29338 l 1.850908,0.25369 0.473479,-1.91149 c 0.26041,-1.05131 0.883838,-3.28745 1.385387,-4.96918 0.501553,-1.68173 0.941571,-3.5491 0.977821,-4.14972 0.0644,-1.06624 0.002,-1.08911 -2.629537,-0.9685 -1.4825,0.0679 -2.804929,-0.0536 -2.938738,-0.27012 -0.133809,-0.21651 0.534654,-1.48003 1.485474,-2.80783 1.979103,-2.76379 3.26488,-3.37937 7.058601,-3.37937 h 2.56112 l 1.58483,2.47748 c 2.28153,3.5666 4.01173,7.59157 5.1131,11.89456 l 0.96129,3.7557 h 1.80725 c 4.35166,0 7.31399,6.64713 5.06455,11.36426 -0.58577,1.22836 -0.63835,1.73893 -0.24412,2.3702 0.6423,1.02848 0.31321,1.33558 -1.43122,1.33558 -0.77149,0 -2.10837,0.29485 -2.97086,0.65522 -1.99798,0.83481 -5.21213,0.84076 -6.81358,0.0126 -1.70143,-0.87985 -5.57066,-0.90949 -7.54539,-0.0578 -2.004331,0.86444 -5.315771,0.87724 -7.271597,0.0281 z m 3.26716,-2.57686 c 0.147276,-0.3838 -0.718483,-1.5879 -2.224684,-3.0941 -2.605192,-2.60519 -3.722406,-2.85324 -3.722406,-0.82645 0,2.5328 5.171394,5.94199 5.94709,3.92055 z m 14.739887,-0.0238 c 0.23266,-0.60629 -1.22643,-2.40558 -1.95076,-2.40558 -0.17535,0 -0.74401,-0.68798 -1.2637,-1.52884 -1.01469,-1.64181 -1.76737,-1.90205 -2.59989,-0.89892 -0.41096,0.49518 -0.36668,0.95891 0.20697,2.16779 1.20605,2.54155 4.96862,4.33016 5.60738,2.66557 z M 106.42981,128.256 c 1.21301,-0.89494 1.77644,-1.03144 3.36096,-0.81426 l 1.90364,0.26093 v -1.53246 c 0,-2.89293 -3.12648,-10.94494 -5.44466,-14.02233 -0.33262,-0.44153 -0.96358,-0.73437 -1.40216,-0.65074 -1.11081,0.21182 -3.81662,5.79537 -5.207923,10.74678 -1.256719,4.47245 -1.087092,5.31125 1.016923,5.02871 0.82157,-0.11033 1.62986,0.18873 2.51997,0.93235 0.72074,0.60213 1.41967,1.10185 1.55318,1.11049 0.13352,0.009 0.89854,-0.46812 1.70007,-1.05947 z m 38.13011,14.52777 c -1.9077,-0.75179 -2.63837,-1.38265 -4.30265,-3.71493 -5.25488,-7.36406 -5.00791,-14.95082 0.64518,-19.81918 1.23314,-1.06196 2.24216,-2.11997 2.24228,-2.35112 1.2e-4,-0.23115 -0.82293,-1.259 -1.82899,-2.28411 -1.00607,-1.02511 -1.67842,-2.01463 -1.49411,-2.19894 0.18431,-0.18431 1.86952,-0.40479 3.74493,-0.48995 3.38843,-0.15388 3.42073,-0.14498 5.15075,1.41798 0.95751,0.86506 1.94414,1.57283 2.1925,1.57283 0.24837,0 0.964,-0.87439 1.59029,-1.94309 1.23389,-2.10546 1.81045,-2.65152 2.1757,-2.06055 0.12874,0.20831 -0.25081,1.03597 -0.84345,1.83924 -0.59263,0.80328 -1.07752,1.69801 -1.07752,1.98831 0,0.29029 1.33862,0.9344 2.97472,1.43135 9.82349,2.98379 12.47068,11.97969 6.63573,22.55003 -1.6676,3.02094 -1.78672,3.12928 -4.48974,4.08353 -2.48028,0.87561 -2.99103,0.92293 -4.78449,0.44325 -1.56048,-0.41736 -2.39246,-0.42175 -3.73436,-0.0197 -2.13709,0.64029 -2.01396,0.65171 -4.79677,-0.44494 z m 6.44766,-1.32014 c 0.84087,-0.0181 2.2738,0.12194 3.1843,0.31112 1.57122,0.32647 1.75221,0.243 3.55693,-1.6405 2.47492,-2.58298 3.83684,-6.08734 4.08369,-10.50776 0.26256,-4.70192 -0.45026,-7.00014 -2.94001,-9.47898 -1.92683,-1.91839 -5.18741,-3.41595 -6.14664,-2.82312 -0.23531,0.14543 -0.42783,0.74423 -0.42783,1.33067 0,0.89351 0.21229,1.06625 1.31044,1.06625 1.58244,0 1.74929,0.95352 0.33962,1.94089 -1.59476,1.11701 -6.455,0.58952 -6.455,-0.70057 0,-0.20168 -0.038,-0.51412 -0.0844,-0.6943 -0.0464,-0.18019 0.49411,-0.42783 1.20124,-0.55031 1.76773,-0.3062 1.69495,-1.48489 -0.10245,-1.65908 -3.41055,-0.33053 -7.58118,2.19848 -9.35299,5.6715 -2.20488,4.32192 -1.15679,10.24341 2.54103,14.35627 2.82181,3.13853 4.31358,4.01918 6.23442,3.68041 0.84086,-0.1483 2.21683,-0.28442 3.05769,-0.30249 z"
           id="path1531" />
        <path
           style="fill:#9f171a;stroke-width:0.436813"
           d="m 52.562203,142.71877 c -2.567451,-0.82833 -3.255847,-1.28226 -4.758074,-3.13749 -2.927456,-3.61538 -4.001041,-6.41193 -4.018819,-10.4685 -0.01865,-4.25458 1.234298,-7.32278 4.351052,-10.65484 l 2.025001,-2.16489 -1.618894,-1.79192 c -0.890391,-0.98556 -1.505893,-1.90492 -1.367781,-2.04304 0.138111,-0.13811 1.492497,-0.40322 3.009746,-0.58913 2.940193,-0.36027 4.864176,0.10661 5.979013,1.45089 0.895331,1.0796 2.976082,0.92898 3.590983,-0.25995 0.770316,-1.48941 1.778027,-2.51902 2.206366,-2.25429 0.210714,0.13023 0.08616,0.66075 -0.276786,1.17893 -0.800408,1.14274 -0.862119,2.49488 -0.113886,2.49535 1.564113,8.8e-4 5.97533,2.67627 7.848922,4.76015 4.699662,5.22716 5.139886,13.15124 1.02976,18.5358 -0.810017,1.06118 -1.692231,2.33951 -1.960478,2.84073 -0.700329,1.30858 -6.729291,3.13791 -10.216851,3.10004 -1.522977,-0.0166 -4.020804,-0.4531 -5.709274,-0.99784 z m 9.4926,-1.17139 c 3.17148,-1.1866 6.068354,-3.81909 7.571834,-6.88077 1.623913,-3.30693 1.688806,-7.49715 0.169024,-10.91357 -1.252347,-2.81524 -5.031591,-6.41313 -7.519276,-7.15846 -2.004158,-0.60046 -2.544228,-0.19362 -2.556028,1.92549 -0.0055,0.98419 0.185967,1.20123 1.059565,1.20123 1.527795,0 1.865945,0.87558 0.70211,1.818 -1.419146,1.14915 -4.966574,1.09917 -6.152426,-0.0867 -1.053769,-1.05377 -0.781026,-1.73132 0.696932,-1.73132 0.775044,0 1.066253,-0.2386 1.066253,-0.87362 0,-0.79074 -0.291209,-0.87363 -3.069186,-0.87363 -3.038716,0 -3.088021,0.0188 -4.966331,1.89714 -5.536016,5.53602 -4.767894,15.393 1.540181,19.7645 2.073404,1.43687 5.737594,2.76588 7.680185,2.78562 0.771791,0.008 2.471515,-0.38543 3.777163,-0.87393 z m 32.167091,1.67618 c -0.600618,-0.2569 -1.780013,-0.5919 -2.620878,-0.74446 -1.322045,-0.23986 -1.537818,-0.45359 -1.595167,-1.5801 -0.03647,-0.71649 -0.397107,-2.18726 -0.801403,-3.26837 -0.852913,-2.28074 -0.64357,-4.45474 0.67851,-7.04622 1.214157,-2.37995 3.112935,-3.46888 5.482409,-3.1441 l 1.850908,0.25369 0.473479,-1.91149 c 0.26041,-1.05131 0.883838,-3.28745 1.385387,-4.96918 0.501553,-1.68173 0.941571,-3.5491 0.977821,-4.14972 0.0644,-1.06624 0.002,-1.08911 -2.629537,-0.9685 -1.4825,0.0679 -2.804929,-0.0536 -2.938738,-0.27012 -0.133809,-0.21651 0.534654,-1.48003 1.485474,-2.80783 1.979103,-2.76379 3.26488,-3.37937 7.058601,-3.37937 h 2.56112 l 1.58483,2.47748 c 2.28153,3.5666 4.01173,7.59157 5.1131,11.89456 l 0.96129,3.7557 h 1.80725 c 2.08241,0 3.63854,1.18887 4.98002,3.80471 1.01882,1.98667 1.09061,5.56516 0.14819,7.38759 -0.43076,0.83301 -0.57924,1.79272 -0.40211,2.59919 0.26821,1.22114 0.21301,1.27855 -1.22938,1.27855 -0.83062,0 -2.21588,0.29485 -3.07837,0.65522 -1.99798,0.83481 -5.21213,0.84076 -6.81358,0.0126 -1.70143,-0.87985 -5.57066,-0.90949 -7.54539,-0.0578 -1.832698,0.79042 -5.255342,0.87877 -6.893836,0.17797 z m 5.357782,-2.02715 c 2.141984,-1.41242 2.476064,-2.21774 2.490964,-6.00465 0.008,-1.942 -0.11896,-3.66375 -0.28132,-3.82611 -0.16236,-0.16236 -0.76789,0.14887 -1.34563,0.69162 -2.072663,1.94717 -7.134727,0.77261 -6.416943,-1.48893 0.383684,-1.20888 -0.893265,-1.00199 -1.927013,0.3122 -2.663371,3.38593 -1.127838,8.33306 3.196121,10.29716 2.215891,1.00654 2.781996,1.00901 4.283821,0.0187 z m 15.520544,-0.62401 c 0.57493,-0.53686 1.3215,-1.5069 1.65904,-2.15565 0.71527,-1.37472 0.82593,-5.84517 0.15495,-6.25985 -0.25233,-0.15595 -1.15598,0.0473 -2.00813,0.45168 -1.8427,0.87442 -4.04156,0.59849 -5.17033,-0.64879 -0.4225,-0.46685 -0.65463,-1.14469 -0.51587,-1.50631 0.13878,-0.36163 0.0684,-0.77117 -0.1564,-0.9101 -0.77876,-0.4813 -2.09341,0.65593 -3.05533,2.64298 -0.86383,1.78443 -0.91076,2.19517 -0.44209,3.86909 0.6547,2.33837 1.91276,3.86697 4.16269,5.05784 2.05545,1.08794 3.8171,0.91054 5.37147,-0.54089 z m -8.67041,-12.31639 c 1.21301,-0.89493 1.77644,-1.03143 3.36096,-0.81425 l 1.90364,0.26092 v -1.53246 c 0,-2.89293 -3.12648,-10.94494 -5.44466,-14.02232 -0.33262,-0.44154 -0.96358,-0.73438 -1.40216,-0.65075 -1.11081,0.21182 -3.81662,5.79537 -5.207923,10.74678 -1.256719,4.47245 -1.087092,5.31125 1.016923,5.02871 0.82157,-0.11033 1.62986,0.18873 2.51997,0.93235 0.72074,0.60213 1.41967,1.10185 1.55318,1.11049 0.13352,0.009 0.89854,-0.46812 1.70007,-1.05947 z m 38.13011,14.52777 c -1.9077,-0.75178 -2.63837,-1.38265 -4.30265,-3.71493 -5.25488,-7.36405 -5.00791,-14.95082 0.64518,-19.81918 1.23314,-1.06196 2.24216,-2.11997 2.24228,-2.35112 1.2e-4,-0.23115 -0.82293,-1.259 -1.82899,-2.28411 -1.00607,-1.0251 -1.67842,-2.01463 -1.49411,-2.19893 0.18431,-0.18431 1.86952,-0.40479 3.74493,-0.48996 3.38843,-0.15388 3.42073,-0.14498 5.15075,1.41798 0.95751,0.86506 1.94414,1.57283 2.1925,1.57283 0.24837,0 0.964,-0.87439 1.59029,-1.94308 1.23389,-2.10547 1.81045,-2.65152 2.1757,-2.06056 0.12874,0.20832 -0.25081,1.03597 -0.84345,1.83924 -0.59263,0.80328 -1.07752,1.69801 -1.07752,1.98831 0,0.29029 1.33862,0.93441 2.97472,1.43135 9.82349,2.98379 12.47068,11.97969 6.63573,22.55003 -1.6676,3.02094 -1.78672,3.12928 -4.48974,4.08353 -2.48028,0.87561 -2.99103,0.92293 -4.78449,0.44325 -1.56048,-0.41736 -2.39246,-0.42175 -3.73436,-0.0197 -2.13709,0.64029 -2.01396,0.65171 -4.79677,-0.44493 z m 6.44766,-1.32016 c 0.84087,-0.0181 2.2738,0.12194 3.1843,0.31112 1.57122,0.32647 1.75221,0.243 3.55693,-1.6405 2.47492,-2.58298 3.83684,-6.08734 4.08369,-10.50776 0.26256,-4.70192 -0.45026,-7.00014 -2.94001,-9.47898 -1.92683,-1.91839 -5.18741,-3.41595 -6.14664,-2.82312 -0.23531,0.14543 -0.42783,0.74423 -0.42783,1.33067 0,0.89351 0.21229,1.06625 1.31044,1.06625 1.58244,0 1.74929,0.95352 0.33962,1.94089 -1.59476,1.11701 -6.455,0.58952 -6.455,-0.70057 0,-0.20168 -0.038,-0.51412 -0.0844,-0.6943 -0.0464,-0.18019 0.49411,-0.42783 1.20124,-0.55031 1.76773,-0.3062 1.69495,-1.48489 -0.10245,-1.65908 -3.41055,-0.33053 -7.58118,2.19848 -9.35299,5.6715 -2.20488,4.32192 -1.15679,10.24341 2.54103,14.35627 2.82181,3.13853 4.31358,4.01918 6.23442,3.68041 0.84086,-0.1483 2.21683,-0.28442 3.05769,-0.30249 z"
           id="path1529" />
        <path
           style="fill:#565521;stroke-width:0.436813"
           d="m 52.562203,142.71877 c -2.567451,-0.82833 -3.255847,-1.28226 -4.758074,-3.13749 -2.927456,-3.61538 -4.001041,-6.41193 -4.018819,-10.4685 -0.01865,-4.25458 1.234298,-7.32278 4.351052,-10.65484 l 2.025001,-2.16489 -1.618894,-1.79192 c -0.890391,-0.98556 -1.505893,-1.90492 -1.367781,-2.04304 0.138111,-0.13811 1.492497,-0.40322 3.009746,-0.58913 2.940193,-0.36027 4.864176,0.10661 5.979013,1.45089 0.895331,1.0796 2.976082,0.92898 3.590983,-0.25995 0.770316,-1.48941 1.778027,-2.51902 2.206366,-2.25429 0.210714,0.13023 0.08616,0.66075 -0.276786,1.17893 -0.800408,1.14274 -0.862119,2.49488 -0.113886,2.49535 1.564113,8.8e-4 5.97533,2.67627 7.848922,4.76015 4.699662,5.22716 5.139886,13.15124 1.02976,18.5358 -0.810017,1.06118 -1.692231,2.33951 -1.960478,2.84073 -0.700329,1.30858 -6.729291,3.13791 -10.216851,3.10004 -1.522977,-0.0166 -4.020804,-0.4531 -5.709274,-0.99784 z m 11.808128,-1.82862 c 4.571256,-2.23366 7.2792,-6.61498 7.2792,-11.77737 0,-5.07806 -2.729754,-9.56371 -7.197883,-11.82788 -3.415528,-1.73078 -4.737979,-1.34557 -4.737979,1.3801 0,0.8287 0.229741,1.0563 1.066253,1.0563 1.527795,0 1.865945,0.87558 0.70211,1.818 -1.419146,1.14915 -4.966574,1.09917 -6.152426,-0.0867 -1.053769,-1.05377 -0.781026,-1.73132 0.696932,-1.73132 0.775044,0 1.066253,-0.2386 1.066253,-0.87362 0,-0.79074 -0.291209,-0.87363 -3.069186,-0.87363 -3.038716,0 -3.088021,0.0188 -4.966331,1.89714 -5.536016,5.53602 -4.767894,15.393 1.540181,19.7645 4.317701,2.99217 9.289788,3.44504 13.772876,1.25446 z m 29.189939,2.06703 c -2.549231,-1.07574 -2.714141,-1.22871 -3.760387,-3.48819 -2.719471,-5.87299 0.452901,-12.72944 5.565482,-12.02868 l 1.850908,0.25369 0.473479,-1.91149 c 0.26041,-1.05131 0.883838,-3.28745 1.385387,-4.96918 0.501553,-1.68173 0.941571,-3.5491 0.977821,-4.14972 0.0644,-1.06624 0.002,-1.08911 -2.629537,-0.9685 -1.4825,0.0679 -2.804929,-0.0536 -2.938738,-0.27012 -0.133809,-0.21651 0.534654,-1.48003 1.485474,-2.80783 1.979103,-2.76379 3.26488,-3.37937 7.058601,-3.37937 h 2.56112 l 1.58483,2.47748 c 2.28153,3.5666 4.01173,7.59157 5.1131,11.89456 l 0.96129,3.7557 h 1.80725 c 4.82161,0 7.35792,6.85699 4.58448,12.39423 -1.07092,2.13811 -1.38864,2.42063 -3.56152,3.16689 -1.31214,0.45065 -3.22198,0.81936 -4.24411,0.81936 -1.64657,0 -2.6223,-0.29449 -6.03776,-1.82233 -0.62465,-0.27942 -1.64919,-0.0754 -3.59503,0.71577 -3.172586,1.29002 -6.084372,1.39707 -8.64214,0.31773 z m 6.47109,-1.2295 c 2.85489,-1.44566 2.92679,-1.61212 2.92679,-6.77556 0,-4.53512 -0.0435,-4.75567 -1.07064,-5.42868 -0.67988,-0.44547 -1.42712,-0.58837 -2.047319,-0.39153 -0.94968,0.30142 -0.953559,0.32689 -0.140235,0.9216 1.915044,1.40031 -1.856844,3.13524 -4.149129,1.90845 -1.035705,-0.55429 -1.197876,-1.75715 -0.236901,-1.75715 1.098344,0 0.730059,-0.8382 -0.504423,-1.14803 -3.031582,-0.76088 -5.508443,3.93325 -4.272105,8.09646 1.252701,4.2183 5.83611,6.4267 9.493962,4.57444 z m 14.63323,0.0917 c 2.65389,-1.38646 4.46259,-4.21113 4.44846,-6.94724 -0.015,-2.90267 -3.52152,-6.99189 -4.85345,-5.65996 -0.40664,0.40664 -0.25107,0.62692 0.69743,0.98754 1.19369,0.45384 1.20306,0.48376 0.42177,1.34708 -0.61838,0.68329 -1.23859,0.85362 -2.74299,0.75331 -2.18192,-0.14548 -3.44954,-1.33196 -2.25184,-2.1077 0.58242,-0.37723 0.58242,-0.47217 0,-0.85451 -0.90628,-0.59493 -2.31846,-0.54904 -3.15459,0.10252 -1.3272,1.03423 -2.52069,3.5853 -2.52234,5.39146 -0.005,5.15655 5.74251,9.18954 9.95755,6.9875 z m -8.23478,-13.56334 c 1.21301,-0.89493 1.77644,-1.03143 3.36096,-0.81425 l 1.90364,0.26092 v -1.53246 c 0,-2.89293 -3.12648,-10.94494 -5.44466,-14.02232 -0.33262,-0.44154 -0.96358,-0.73438 -1.40216,-0.65075 -1.11081,0.21182 -3.81662,5.79537 -5.207923,10.74678 -1.256719,4.47245 -1.087092,5.31125 1.016923,5.02871 0.82157,-0.11033 1.62986,0.18873 2.51997,0.93235 0.72074,0.60213 1.41967,1.10185 1.55318,1.11049 0.13352,0.009 0.89854,-0.46812 1.70007,-1.05947 z m 38.13011,14.52777 c -1.9077,-0.75178 -2.63837,-1.38265 -4.30265,-3.71493 -5.25488,-7.36405 -5.00791,-14.95082 0.64518,-19.81918 1.23314,-1.06196 2.24216,-2.11997 2.24228,-2.35112 1.2e-4,-0.23115 -0.82293,-1.259 -1.82899,-2.28411 -1.00607,-1.0251 -1.67842,-2.01463 -1.49411,-2.19893 0.18431,-0.18431 1.86952,-0.40479 3.74493,-0.48996 3.38843,-0.15388 3.42073,-0.14498 5.15075,1.41798 0.95751,0.86506 1.94414,1.57283 2.1925,1.57283 0.24837,0 0.964,-0.87439 1.59029,-1.94308 1.23389,-2.10547 1.81045,-2.65152 2.1757,-2.06056 0.12874,0.20832 -0.25081,1.03597 -0.84345,1.83924 -0.59263,0.80328 -1.07752,1.69801 -1.07752,1.98831 0,0.29029 1.33862,0.93441 2.97472,1.43135 9.82349,2.98379 12.47068,11.97969 6.63573,22.55003 -1.6676,3.02094 -1.78672,3.12928 -4.48974,4.08353 -2.48028,0.87561 -2.99103,0.92293 -4.78449,0.44325 -1.56048,-0.41736 -2.39246,-0.42175 -3.73436,-0.0197 -2.13709,0.64029 -2.01396,0.65171 -4.79677,-0.44493 z m 6.44766,-1.32016 c 0.84087,-0.0181 2.2738,0.12194 3.1843,0.31112 1.57122,0.32647 1.75221,0.243 3.55693,-1.6405 2.47492,-2.58298 3.83684,-6.08734 4.08369,-10.50776 0.26256,-4.70192 -0.45026,-7.00014 -2.94001,-9.47898 -1.92683,-1.91839 -5.18741,-3.41595 -6.14664,-2.82312 -0.23531,0.14543 -0.42783,0.74423 -0.42783,1.33067 0,0.89351 0.21229,1.06625 1.31044,1.06625 1.58244,0 1.74929,0.95352 0.33962,1.94089 -1.59476,1.11701 -6.455,0.58952 -6.455,-0.70057 0,-0.20168 -0.038,-0.51412 -0.0844,-0.6943 -0.0464,-0.18019 0.49411,-0.42783 1.20124,-0.55031 1.76773,-0.3062 1.69495,-1.48489 -0.10245,-1.65908 -3.41055,-0.33053 -7.58118,2.19848 -9.35299,5.6715 -2.20488,4.32192 -1.15679,10.24341 2.54103,14.35627 2.82181,3.13853 4.31358,4.01918 6.23442,3.68041 0.84086,-0.1483 2.21683,-0.28442 3.05769,-0.30249 z"
           id="path1527" />
        <path
           style="fill:#15592a;stroke-width:0.436813"
           d="m 53.208893,142.77226 c -4.665285,-1.56437 -8.350349,-6.10156 -9.190928,-11.31622 -0.759135,-4.7094 0.76837,-9.40601 4.163331,-12.80097 1.057368,-1.05737 1.922487,-2.09601 1.922487,-2.3081 0,-0.21209 -0.688363,-1.0528 -1.529696,-1.86825 -0.841332,-0.81545 -1.363174,-1.64916 -1.159649,-1.85268 0.203526,-0.20353 1.767965,-0.48725 3.476533,-0.63049 3.022056,-0.25336 3.148961,-0.22314 4.669352,1.11178 0.859577,0.75472 1.850876,1.37222 2.202887,1.37222 0.712277,0 1.801504,-0.99291 2.885539,-2.63036 0.394172,-0.59541 0.852149,-0.95218 1.017731,-0.79284 0.165583,0.15934 -0.03984,0.80997 -0.456469,1.44584 -0.932572,1.42329 -0.445667,2.01231 2.307709,2.79167 3.94142,1.11565 7.771396,5.31487 9.13935,10.02047 2.086743,7.17814 -2.224688,15.36242 -9.233186,17.52712 -3.695359,1.14138 -6.664791,1.12127 -10.214991,-0.0692 z m 9.626717,-1.17361 c 3.245302,-1.23599 6.154664,-3.85496 7.628253,-6.86687 0.95794,-1.95796 1.189001,-3.0386 1.187511,-5.55383 -0.0031,-5.3328 -2.710009,-9.62442 -7.640121,-12.11313 -3.221112,-1.62602 -4.200514,-1.64188 -4.544153,-0.0736 -0.144766,0.66068 -0.338908,1.44694 -0.431425,1.74725 -0.363196,1.17893 0.293054,1.82424 1.591131,1.56463 1.46147,-0.2923 1.736055,0.44898 0.426018,1.15009 -1.404217,0.75151 -4.196587,0.53838 -5.331284,-0.40692 l -1.031221,-0.85909 1.390207,-0.0145 c 0.99678,-0.0104 1.468324,-0.26066 1.666244,-0.88424 0.461843,-1.45513 -0.132811,-1.75115 -3.517785,-1.75115 -3.130985,0 -3.313835,0.0585 -5.031503,1.61033 -0.980343,0.88568 -2.305919,2.60563 -2.945724,3.82211 -1.009528,1.91945 -1.163398,2.73139 -1.16417,6.1431 -7.42e-4,3.23958 0.171966,4.25583 0.981489,5.77563 2.046897,3.84282 5.024205,6.34528 8.818053,7.41166 2.496234,0.70164 4.797775,0.49854 7.94848,-0.70142 z m 30.512658,1.12067 c -1.899001,-0.77936 -2.561127,-1.31953 -3.159547,-2.57762 -2.031648,-4.27123 -1.658212,-8.30016 1.028629,-11.09774 1.361777,-1.4179 1.635856,-1.52166 3.550311,-1.34401 1.219228,0.11314 2.233778,-0.006 2.46065,-0.28937 0.212326,-0.26502 0.610088,-1.56298 0.883918,-2.88434 0.273829,-1.32136 0.904836,-3.63799 1.402239,-5.14807 1.220212,-3.70449 1.002622,-4.1169 -2.096353,-3.97335 -1.586151,0.0735 -2.546344,-0.0677 -2.653826,-0.39012 -0.174433,-0.5233 2.625971,-4.4627 3.537106,-4.97575 0.839528,-0.47272 6.579705,-0.8709 7.110375,-0.49322 1.81889,1.29452 5.39511,8.71033 6.74414,13.98498 1.03666,4.0533 1.13059,4.19346 2.61185,3.89721 2.78059,-0.55612 6.12009,3.59957 6.07937,7.56519 -0.0112,1.09026 -0.46211,3.05477 -1.00204,4.36557 -0.90097,2.18734 -1.1776,2.46397 -3.36494,3.36494 -3.12726,1.28813 -5.47764,1.26633 -8.84586,-0.0821 l -2.75887,-1.10445 -2.93426,1.10445 c -3.576965,1.34636 -5.460244,1.3634 -8.592892,0.0778 z m 6.683092,-0.99164 c 2.85489,-1.44566 2.92679,-1.61212 2.92679,-6.77556 0,-4.53512 -0.0435,-4.75567 -1.07064,-5.42868 -0.67988,-0.44547 -1.42712,-0.58837 -2.047319,-0.39153 -0.94968,0.30142 -0.953559,0.32689 -0.140235,0.9216 1.915044,1.40031 -1.856844,3.13524 -4.149129,1.90845 -1.035705,-0.55429 -1.197876,-1.75715 -0.236901,-1.75715 1.098344,0 0.730059,-0.8382 -0.504423,-1.14803 -3.031582,-0.76088 -5.508443,3.93325 -4.272105,8.09646 1.252701,4.2183 5.83611,6.4267 9.493962,4.57444 z m 14.63323,0.0917 c 2.65389,-1.38646 4.46259,-4.21113 4.44846,-6.94724 -0.015,-2.90267 -3.52152,-6.99189 -4.85345,-5.65996 -0.40664,0.40664 -0.25107,0.62692 0.69743,0.98754 1.19369,0.45384 1.20306,0.48376 0.42177,1.34708 -0.61838,0.68329 -1.23859,0.85362 -2.74299,0.75331 -2.18192,-0.14548 -3.44954,-1.33196 -2.25184,-2.1077 0.58242,-0.37723 0.58242,-0.47217 0,-0.85451 -0.90628,-0.59493 -2.31846,-0.54904 -3.15459,0.10252 -1.3272,1.03423 -2.52069,3.5853 -2.52234,5.39146 -0.005,5.15655 5.74251,9.18954 9.95755,6.9875 z m -8.22245,-13.42309 c 0.98036,-0.72481 1.65973,-0.88191 3.02292,-0.69907 2.75369,0.36934 2.95942,-0.25216 1.62425,-4.90677 -1.1599,-4.04362 -3.41799,-8.9963 -4.98241,-10.92795 -0.84714,-1.046 -0.91437,-1.05835 -1.73213,-0.31829 -2.02367,1.83139 -6.320406,13.57698 -5.627367,15.38301 0.204861,0.53387 0.597092,0.65664 1.480307,0.46335 0.87196,-0.19083 1.62101,0.0334 2.73044,0.81742 1.88749,1.33383 1.93138,1.3362 3.48399,0.1883 z m 39.26897,14.72413 c -2.08438,-0.71658 -3.03749,-1.43326 -4.98166,-3.7459 -2.93317,-3.48909 -3.91829,-6.18747 -3.91829,-10.73278 0,-3.65294 0.10437,-4.13439 1.32393,-6.10697 0.72815,-1.17777 2.14125,-2.73488 3.1402,-3.46025 0.99895,-0.72537 1.82829,-1.62427 1.84297,-1.99758 0.0147,-0.3733 -0.66129,-1.34555 -1.50216,-2.16055 -0.84086,-0.815 -1.52884,-1.71239 -1.52884,-1.99419 0,-0.56616 2.31255,-1.05127 5.04686,-1.05869 1.45358,-0.004 2.0362,0.26904 3.25258,1.52403 0.815,0.84087 1.81834,1.52885 2.22964,1.52885 0.41131,0 1.30644,-0.8842 1.98918,-1.96488 0.68274,-1.08068 1.38877,-1.96523 1.56895,-1.96565 0.48805,-0.001 0.4156,0.23697 -0.59133,1.94359 -1.14769,1.94518 -0.88744,2.6703 1.09163,3.04158 4.21244,0.79025 7.58551,3.214 9.27829,6.66698 2.32081,4.73407 1.47795,11.20374 -2.16372,16.60834 -2.27255,3.37268 -5.62425,4.80425 -8.94941,3.82245 -1.48352,-0.43803 -2.20897,-0.43435 -3.71479,0.0188 -1.4859,0.4472 -2.18896,0.45394 -3.41403,0.0328 z m 5.51488,-1.20375 c 0.72074,0.005 1.93798,0.14413 2.70498,0.30969 1.25837,0.27164 1.60417,0.0914 3.54113,-1.84554 2.73813,-2.73813 4.10037,-6.09792 4.3604,-10.75431 0.33444,-5.98907 -1.43818,-9.41633 -6.14477,-11.88054 -2.64719,-1.38599 -3.58564,-1.26823 -3.92216,0.49215 -0.35837,1.87471 0.0378,2.44334 1.48146,2.12627 1.59045,-0.34932 1.69557,0.52152 0.13459,1.115 -1.45892,0.55468 -3.5235,0.5429 -4.58682,-0.0262 -1.19603,-0.6401 -1.0474,-1.21375 0.35633,-1.37526 0.95325,-0.10969 1.20123,-0.36366 1.20123,-1.23025 0,-0.97978 -0.199,-1.10624 -1.93591,-1.23024 -5.00056,-0.35698 -10.23405,4.35319 -10.84337,9.75908 -0.51261,4.54784 1.92022,9.93474 5.97508,13.23033 2.25924,1.83621 2.46138,1.91086 4.36813,1.61322 1.09959,-0.17165 2.58896,-0.30819 3.3097,-0.30342 z"
           id="path1525" />
        <path
           style="fill:#581f19;stroke-width:0.436813"
           d="m 53.208893,142.77226 c -4.665285,-1.56437 -8.350349,-6.10156 -9.190928,-11.31622 -0.759135,-4.7094 0.76837,-9.40601 4.163331,-12.80097 1.057368,-1.05737 1.922487,-2.09601 1.922487,-2.3081 0,-0.21209 -0.688363,-1.0528 -1.529696,-1.86825 -0.841332,-0.81545 -1.363174,-1.64916 -1.159649,-1.85268 0.203526,-0.20353 1.767965,-0.48725 3.476533,-0.63049 3.022056,-0.25336 3.148961,-0.22314 4.669352,1.11178 0.859577,0.75472 1.850876,1.37222 2.202887,1.37222 0.712277,0 1.801504,-0.99291 2.885539,-2.63036 0.394172,-0.59541 0.852149,-0.95218 1.017731,-0.79284 0.165583,0.15934 -0.03984,0.80997 -0.456469,1.44584 -0.932572,1.42329 -0.445667,2.01231 2.307709,2.79167 3.94142,1.11565 7.771396,5.31487 9.13935,10.02047 2.086743,7.17814 -2.224688,15.36242 -9.233186,17.52712 -3.695359,1.14138 -6.664791,1.12127 -10.214991,-0.0692 z m 9.626717,-1.17361 c 3.245302,-1.23599 6.154664,-3.85496 7.628253,-6.86687 0.95794,-1.95796 1.189001,-3.0386 1.187511,-5.55383 -0.0031,-5.3328 -2.710009,-9.62442 -7.640121,-12.11313 -3.221112,-1.62602 -4.200514,-1.64188 -4.544153,-0.0736 -0.144766,0.66068 -0.338908,1.44694 -0.431425,1.74725 -0.363196,1.17893 0.293054,1.82424 1.591131,1.56463 1.46147,-0.2923 1.736055,0.44898 0.426018,1.15009 -1.404217,0.75151 -4.196587,0.53838 -5.331284,-0.40692 l -1.031221,-0.85909 1.390207,-0.0145 c 0.99678,-0.0104 1.468324,-0.26066 1.666244,-0.88424 0.461843,-1.45513 -0.132811,-1.75115 -3.517785,-1.75115 -3.130985,0 -3.313835,0.0585 -5.031503,1.61033 -0.980343,0.88568 -2.305919,2.60563 -2.945724,3.82211 -1.009528,1.91945 -1.163398,2.73139 -1.16417,6.1431 -7.42e-4,3.23958 0.171966,4.25583 0.981489,5.77563 2.046897,3.84282 5.024205,6.34528 8.818053,7.41166 2.496234,0.70164 4.797775,0.49854 7.94848,-0.70142 z m -7.249727,-25.84416 c 0.426549,-0.69017 -1.985287,-3.02219 -3.125627,-3.02219 -2.434123,0 -2.925258,0.86709 -1.406704,2.48352 1.018107,1.08372 3.97805,1.43552 4.532331,0.53867 z m 37.762385,26.96483 c -1.899001,-0.77936 -2.561127,-1.31953 -3.159547,-2.57762 -2.031648,-4.27123 -1.658212,-8.30016 1.028629,-11.09774 1.361777,-1.4179 1.635856,-1.52166 3.550311,-1.34401 1.219228,0.11314 2.233778,-0.006 2.46065,-0.28937 0.212326,-0.26502 0.610088,-1.56298 0.883918,-2.88434 0.273829,-1.32136 0.904836,-3.63799 1.402239,-5.14807 1.220212,-3.70449 1.002622,-4.1169 -2.096353,-3.97335 -1.586151,0.0735 -2.546344,-0.0677 -2.653826,-0.39012 -0.174433,-0.5233 2.625971,-4.4627 3.537106,-4.97575 0.839528,-0.47272 6.579705,-0.8709 7.110375,-0.49322 1.81889,1.29452 5.39511,8.71033 6.74414,13.98498 1.03666,4.0533 1.13059,4.19346 2.61185,3.89721 2.78059,-0.55612 6.12009,3.59957 6.07937,7.56519 -0.0112,1.09026 -0.46211,3.05477 -1.00204,4.36557 -0.90097,2.18734 -1.1776,2.46397 -3.36494,3.36494 -3.12726,1.28813 -5.47764,1.26633 -8.84586,-0.0821 l -2.75887,-1.10445 -2.93426,1.10445 c -3.576965,1.34636 -5.460244,1.3634 -8.592892,0.0778 z m 6.683092,-0.99164 c 2.85489,-1.44566 2.92679,-1.61212 2.92679,-6.77556 0,-4.53512 -0.0435,-4.75567 -1.07064,-5.42868 -0.67988,-0.44547 -1.42712,-0.58837 -2.047319,-0.39153 -0.94968,0.30142 -0.953559,0.32689 -0.140235,0.9216 1.915044,1.40031 -1.856844,3.13524 -4.149129,1.90845 -1.035705,-0.55429 -1.197876,-1.75715 -0.236901,-1.75715 1.098344,0 0.730059,-0.8382 -0.504423,-1.14803 -3.031582,-0.76088 -5.508443,3.93325 -4.272105,8.09646 1.252701,4.2183 5.83611,6.4267 9.493962,4.57444 z m 14.63323,0.0917 c 2.65389,-1.38646 4.46259,-4.21113 4.44846,-6.94724 -0.015,-2.90267 -3.52152,-6.99189 -4.85345,-5.65996 -0.40664,0.40664 -0.25107,0.62692 0.69743,0.98754 1.19369,0.45384 1.20306,0.48376 0.42177,1.34708 -0.61838,0.68329 -1.23859,0.85362 -2.74299,0.75331 -2.18192,-0.14548 -3.44954,-1.33196 -2.25184,-2.1077 0.58242,-0.37723 0.58242,-0.47217 0,-0.85451 -0.90628,-0.59493 -2.31846,-0.54904 -3.15459,0.10252 -1.3272,1.03423 -2.52069,3.5853 -2.52234,5.39146 -0.005,5.15655 5.74251,9.18954 9.95755,6.9875 z m -8.22245,-13.42309 c 0.98036,-0.72481 1.65973,-0.88191 3.02292,-0.69907 2.75369,0.36934 2.95942,-0.25216 1.62425,-4.90677 -1.1599,-4.04362 -3.41799,-8.9963 -4.98241,-10.92795 -0.84714,-1.046 -0.91437,-1.05835 -1.73213,-0.31829 -2.02367,1.83139 -6.320406,13.57698 -5.627367,15.38301 0.204861,0.53387 0.597092,0.65664 1.480307,0.46335 0.87196,-0.19083 1.62101,0.0334 2.73044,0.81742 1.88749,1.33383 1.93138,1.3362 3.48399,0.1883 z m -5.19764,-15.19355 c 2.0343,-2.03429 1.43362,-3.05965 -1.367228,-2.33388 -1.556688,0.40338 -3.325047,2.3504 -2.843045,3.1303 0.591374,0.95686 2.892221,0.52163 4.210273,-0.79642 z m 44.46661,29.91768 c -2.08438,-0.71658 -3.03749,-1.43326 -4.98166,-3.7459 -2.93317,-3.48909 -3.91829,-6.18747 -3.91829,-10.73278 0,-3.65294 0.10437,-4.13439 1.32393,-6.10697 0.72815,-1.17777 2.14125,-2.73488 3.1402,-3.46025 0.99895,-0.72537 1.82829,-1.62427 1.84297,-1.99758 0.0147,-0.3733 -0.66129,-1.34555 -1.50216,-2.16055 -0.84086,-0.815 -1.52884,-1.71239 -1.52884,-1.99419 0,-0.56616 2.31255,-1.05127 5.04686,-1.05869 1.45358,-0.004 2.0362,0.26904 3.25258,1.52403 0.815,0.84087 1.81834,1.52885 2.22964,1.52885 0.41131,0 1.30644,-0.8842 1.98918,-1.96488 0.68274,-1.08068 1.38877,-1.96523 1.56895,-1.96565 0.48805,-0.001 0.4156,0.23697 -0.59133,1.94359 -1.14769,1.94518 -0.88744,2.6703 1.09163,3.04158 4.21244,0.79025 7.58551,3.214 9.27829,6.66698 2.32081,4.73407 1.47795,11.20374 -2.16372,16.60834 -2.27255,3.37268 -5.62425,4.80425 -8.94941,3.82245 -1.48352,-0.43803 -2.20897,-0.43435 -3.71479,0.0188 -1.4859,0.4472 -2.18896,0.45394 -3.41403,0.0328 z m 3.96091,-1.17832 c 1.07932,-0.37626 1.81152,-0.36288 3.08172,0.0563 4.33725,1.43142 8.76972,-2.11979 10.7729,-8.63105 0.86162,-2.80065 0.83623,-7.39389 -0.0527,-9.52731 -1.46857,-3.52468 -5.85859,-6.63136 -9.69693,-6.86222 -1.41187,-0.0849 -1.63169,0.0449 -1.93484,1.14239 -0.51701,1.87177 -0.0798,2.57022 1.40484,2.24415 1.59045,-0.34932 1.69557,0.52152 0.13459,1.115 -1.45892,0.55468 -3.5235,0.5429 -4.58682,-0.0262 -1.19603,-0.6401 -1.0474,-1.21375 0.35633,-1.37526 0.95325,-0.10969 1.20123,-0.36366 1.20123,-1.23025 0,-0.97978 -0.199,-1.10624 -1.93591,-1.23024 -5.00056,-0.35698 -10.23405,4.35319 -10.84337,9.75908 -0.50964,4.52152 1.91949,9.93425 5.91584,13.18204 2.45287,1.99343 3.65919,2.26335 6.1831,1.38351 z m -1.48179,-26.18758 c 0.42655,-0.69017 -1.98528,-3.02219 -3.12562,-3.02219 -2.43412,0 -2.92526,0.86709 -1.40671,2.48352 1.01811,1.08372 3.97805,1.43552 4.53233,0.53867 z"
           id="path1523" />
        <path
           style="fill:#29271d;stroke-width:0.436813"
           d="m 54.176704,143.11722 c -2.563998,-0.80171 -4.546897,-2.11604 -6.67414,-4.42382 -5.193146,-5.6339 -4.894001,-14.4656 0.678732,-20.03833 1.057368,-1.05737 1.922487,-2.09601 1.922487,-2.3081 0,-0.21209 -0.688363,-1.0528 -1.529696,-1.86825 -0.841332,-0.81545 -1.363174,-1.64916 -1.159649,-1.85268 0.203526,-0.20353 1.767965,-0.48725 3.476533,-0.63049 3.022056,-0.25336 3.148961,-0.22314 4.669352,1.11178 0.859577,0.75472 1.850876,1.37222 2.202887,1.37222 0.712277,0 1.801504,-0.99291 2.885539,-2.63036 0.394172,-0.59541 0.852149,-0.95218 1.017731,-0.79284 0.165583,0.15934 -0.03984,0.80997 -0.456469,1.44584 -0.932572,1.42329 -0.445667,2.01231 2.307709,2.79167 3.94142,1.11565 7.771396,5.31487 9.13935,10.02047 2.081799,7.16113 -2.283173,15.38049 -9.322637,17.55475 -3.2209,0.99484 -6.486682,1.08333 -9.157729,0.24814 z m 9.307228,-1.17743 c 3.165051,-1.1842 5.922774,-3.7202 7.468729,-6.86822 1.042035,-2.1219 1.20739,-2.98017 1.190106,-6.1772 -0.01608,-2.97502 -0.215161,-4.08576 -1.001748,-5.58904 -2.030127,-3.87989 -5.741063,-6.88704 -9.501294,-7.69935 -1.741284,-0.37617 -2.49731,0.49297 -2.545336,2.92616 -0.03322,1.68314 0.06139,1.8383 1.250713,2.0512 l 1.286652,0.23033 -1.198002,0.54585 c -1.544782,0.70385 -2.851315,0.66994 -4.214587,-0.10937 -1.083825,-0.61957 -1.026919,-0.69 0.655219,-0.81086 0.641697,-0.0461 0.908861,-0.42485 1.006347,-1.42665 0.168276,-1.72927 -0.206945,-1.85993 -4.355387,-1.51671 -2.444116,0.20222 -3.608633,0.5108 -4.309769,1.14203 -3.028153,2.72622 -5.11783,8.16665 -4.591701,11.95439 0.415579,2.99186 2.617887,7.20061 4.700775,8.98348 3.788223,3.24258 9.33558,4.16874 14.159283,2.36396 z m -7.898049,-26.1853 c 0.426549,-0.69017 -1.985287,-3.02219 -3.125627,-3.02219 -2.434123,0 -2.925258,0.86709 -1.406704,2.48352 1.018107,1.08372 3.97805,1.43552 4.532331,0.53867 z m 38.417604,27.16338 c -5.468151,-2.53167 -6.888169,-9.60282 -2.786137,-13.87391 1.361777,-1.4179 1.635856,-1.52166 3.550311,-1.34401 1.219228,0.11314 2.233778,-0.006 2.46065,-0.28937 0.212326,-0.26502 0.610088,-1.56298 0.883918,-2.88434 0.273829,-1.32136 0.904836,-3.63799 1.402239,-5.14807 1.220212,-3.70449 1.002622,-4.1169 -2.096353,-3.97335 -1.586151,0.0735 -2.546344,-0.0677 -2.653826,-0.39012 -0.174433,-0.5233 2.625971,-4.4627 3.537106,-4.97575 0.839528,-0.47272 6.579705,-0.8709 7.110375,-0.49322 1.81889,1.29452 5.39511,8.71033 6.74414,13.98498 1.03666,4.0533 1.13059,4.19346 2.61185,3.89721 2.73115,-0.54623 6.09973,3.57909 6.09973,7.47001 0,4.97587 -3.8126,8.8289 -8.73626,8.8289 -2.11039,0 -5.08462,-1.1358 -6.05967,-2.31406 -0.81239,-0.98171 -1.50961,-0.91182 -2.97069,0.29778 -2.55928,2.11878 -6.110727,2.5901 -9.097383,1.20732 z m 7.954863,-1.64157 1.6345,-1.32291 0.0284,-4.76509 c 0.0246,-4.13767 -0.0847,-4.89449 -0.8303,-5.74791 -1.0233,-1.17124 -3.371885,-1.32652 -4.240138,-0.28034 -0.494267,0.59555 -0.462502,0.79061 0.208661,1.28137 1.472647,1.07683 -0.478598,2.03507 -2.536175,1.2455 -0.876522,-0.33635 -0.900752,-1.0453 -0.03574,-1.0453 0.360371,0 0.655219,-0.37788 0.655219,-0.83975 0,-0.57724 -0.492847,-1.0024 -1.576597,-1.36007 -1.374445,-0.45361 -1.724503,-0.41267 -2.730081,0.31931 -1.52806,1.11228 -3.121505,4.30579 -3.10955,6.232 0.01118,1.8015 1.254532,4.73092 2.440391,5.74974 1.896992,1.62979 3.430756,2.14526 5.951962,2.00034 2.011493,-0.11562 2.826958,-0.40459 4.139458,-1.46689 z m 13.68429,0.71383 c 2.16784,-1.10595 3.95352,-3.75446 4.23901,-6.28727 0.25681,-2.27843 -1.10338,-5.56637 -2.74877,-6.64446 -1.46641,-0.96084 -3.43718,-0.63328 -3.61239,0.6004 -0.0939,0.66106 0.0849,0.98282 0.54601,0.98282 0.88942,0 0.88583,0.70333 -0.005,1.0453 -1.00231,0.38463 -2.0542,0.31471 -2.80355,-0.18635 -0.57146,-0.38211 -0.5575,-0.49571 0.1092,-0.88864 1.16852,-0.68869 0.92331,-1.25894 -0.86216,-2.00495 -1.49001,-0.62257 -1.74171,-0.61763 -2.99778,0.0588 -3.15615,1.6997 -4.2792,7.01941 -2.2052,10.44568 2.13559,3.52803 6.62074,4.77658 10.34098,2.87866 z m -9.2005,-13.59387 c 0.98036,-0.72481 1.65973,-0.88191 3.02292,-0.69907 2.75369,0.36934 2.95942,-0.25216 1.62425,-4.90677 -1.1599,-4.04362 -3.41799,-8.9963 -4.98241,-10.92795 -0.84714,-1.046 -0.91437,-1.05835 -1.73213,-0.31829 -2.02367,1.83139 -6.320406,13.57698 -5.627367,15.38301 0.204861,0.53387 0.597092,0.65664 1.480307,0.46335 0.87196,-0.19083 1.62101,0.0334 2.73044,0.81742 1.88749,1.33383 1.93138,1.3362 3.48399,0.1883 z m -5.19764,-15.19355 c 2.0343,-2.03429 1.43362,-3.05965 -1.367228,-2.33388 -1.556688,0.40338 -3.325047,2.3504 -2.843045,3.1303 0.591374,0.95686 2.892221,0.52163 4.210273,-0.79642 z m 44.46661,29.91768 c -2.08438,-0.71658 -3.03749,-1.43326 -4.98166,-3.7459 -2.93317,-3.48909 -3.91829,-6.18747 -3.91829,-10.73278 0,-3.65294 0.10437,-4.13439 1.32393,-6.10697 0.72815,-1.17777 2.14125,-2.73488 3.1402,-3.46025 0.99895,-0.72537 1.82829,-1.62427 1.84297,-1.99758 0.0147,-0.3733 -0.66129,-1.34555 -1.50216,-2.16055 -0.84086,-0.815 -1.52884,-1.71239 -1.52884,-1.99419 0,-0.56616 2.31255,-1.05127 5.04686,-1.05869 1.45358,-0.004 2.0362,0.26904 3.25258,1.52403 0.815,0.84087 1.81834,1.52885 2.22964,1.52885 0.41131,0 1.30644,-0.8842 1.98918,-1.96488 0.68274,-1.08068 1.38877,-1.96523 1.56895,-1.96565 0.48805,-0.001 0.4156,0.23697 -0.59133,1.94359 -1.14769,1.94518 -0.88744,2.6703 1.09163,3.04158 4.21244,0.79025 7.58551,3.214 9.27829,6.66698 2.32081,4.73407 1.47795,11.20374 -2.16372,16.60834 -2.27255,3.37268 -5.62425,4.80425 -8.94941,3.82245 -1.48352,-0.43803 -2.20897,-0.43435 -3.71479,0.0188 -1.4859,0.4472 -2.18896,0.45394 -3.41403,0.0328 z m 3.96091,-1.17832 c 1.07932,-0.37626 1.81152,-0.36288 3.08172,0.0563 4.33725,1.43142 8.76972,-2.11979 10.7729,-8.63105 0.86162,-2.80065 0.83623,-7.39389 -0.0527,-9.52731 -1.46857,-3.52468 -5.85859,-6.63136 -9.69693,-6.86222 -1.41187,-0.0849 -1.63169,0.0449 -1.93484,1.14239 -0.51701,1.87177 -0.0798,2.57022 1.40484,2.24415 1.59045,-0.34932 1.69557,0.52152 0.13459,1.115 -1.45892,0.55468 -3.5235,0.5429 -4.58682,-0.0262 -1.19603,-0.6401 -1.0474,-1.21375 0.35633,-1.37526 0.95325,-0.10969 1.20123,-0.36366 1.20123,-1.23025 0,-0.97978 -0.199,-1.10624 -1.93591,-1.23024 -5.00056,-0.35698 -10.23405,4.35319 -10.84337,9.75908 -0.50964,4.52152 1.91949,9.93425 5.91584,13.18204 2.45287,1.99343 3.65919,2.26335 6.1831,1.38351 z m -1.48179,-26.18758 c 0.42655,-0.69017 -1.98528,-3.02219 -3.12562,-3.02219 -2.43412,0 -2.92526,0.86709 -1.40671,2.48352 1.01811,1.08372 3.97805,1.43552 4.53233,0.53867 z"
           id="path1521" />
      </g>
    </g>
  </g>
</svg>
