<?xml version="1.0" encoding="UTF-8" standalone="no"?>
<!-- Created with Inkscape (http://www.inkscape.org/) -->

<svg
   width="160.27962mm"
   height="142.01459mm"
   viewBox="0 0 160.27962 142.01459"
   version="1.1"
   id="svg5"
   inkscape:version="1.1.2 (1:1.1+202202050950+0a00cf5339)"
   sodipodi:docname="sign up top.svg"
   xmlns:inkscape="http://www.inkscape.org/namespaces/inkscape"
   xmlns:sodipodi="http://sodipodi.sourceforge.net/DTD/sodipodi-0.dtd"
   xmlns:xlink="http://www.w3.org/1999/xlink"
   xmlns="http://www.w3.org/2000/svg"
   xmlns:svg="http://www.w3.org/2000/svg">
  <sodipodi:namedview
     id="namedview7"
     pagecolor="#ffffff"
     bordercolor="#666666"
     borderopacity="1.0"
     inkscape:pageshadow="2"
     inkscape:pageopacity="0.0"
     inkscape:pagecheckerboard="0"
     inkscape:document-units="mm"
     showgrid="false"
     fit-margin-top="0"
     fit-margin-left="0"
     fit-margin-right="0"
     fit-margin-bottom="0"
     showborder="false"
     inkscape:zoom="0.46858866"
     inkscape:cx="307.30577"
     inkscape:cy="446.02018"
     inkscape:window-width="1366"
     inkscape:window-height="702"
     inkscape:window-x="0"
     inkscape:window-y="38"
     inkscape:window-maximized="1"
     inkscape:current-layer="layer1" />
  <defs
     id="defs2">
    <linearGradient
       inkscape:collect="always"
       id="linearGradient1292">
      <stop
         style="stop-color:#6c43ea;stop-opacity:1"
         offset="0"
         id="stop1288" />
      <stop
         style="stop-color:#1acee3;stop-opacity:0.91680056"
         offset="1"
         id="stop1290" />
    </linearGradient>
    <linearGradient
       inkscape:collect="always"
       xlink:href="#linearGradient1292"
       id="linearGradient1294"
       x1="23.615128"
       y1="147.8537"
       x2="183.89456"
       y2="147.8537"
       gradientUnits="userSpaceOnUse"
       gradientTransform="scale(3.7795276)" />
    <linearGradient
       inkscape:collect="always"
       xlink:href="#linearGradient1292"
       id="linearGradient1409"
       gradientUnits="userSpaceOnUse"
       gradientTransform="translate(245.88052,-122.71598)"
       x1="23.615128"
       y1="147.8537"
       x2="183.89456"
       y2="147.8537" />
  </defs>
  <g
     inkscape:label="Layer 1"
     inkscape:groupmode="layer"
     id="layer1"
     transform="translate(-23.615096,-30.297376)">
    <path
       id="rect846"
       style="fill:url(#linearGradient1409);fill-opacity:1;stroke-width:1;stroke-linecap:round;stroke-linejoin:round;paint-order:markers fill stroke"
       d="m 429.77532,80.143653 c -7.52324,2.949609 -11.28543,4.424474 -16.92817,6.636806 -0.26057,0.102158 -0.51208,0.207666 -0.75499,0.316259 -0.24292,0.108593 -0.4772,0.220144 -0.70332,0.334862 -0.22611,0.114718 -0.44407,0.232415 -0.65423,0.352951 -0.21016,0.120534 -0.41265,0.243962 -0.60772,0.370004 -0.19506,0.126042 -0.38299,0.254781 -0.56378,0.386022 -0.18079,0.131241 -0.35457,0.264877 -0.52194,0.40101 -0.16738,0.136131 -0.32835,0.274765 -0.48316,0.415478 -0.15483,0.140711 -0.3034,0.283414 -0.44651,0.428398 -0.14309,0.144983 -0.28064,0.292367 -0.41288,0.441317 -0.13224,0.148947 -0.25916,0.299566 -0.38137,0.452167 -0.2444,0.305205 -0.46964,0.617374 -0.67903,0.935345 -0.20939,0.317971 -0.4028,0.641702 -0.58393,0.969965 -0.18116,0.328266 -0.35036,0.661268 -0.51007,0.997357 -0.15967,0.336087 -0.31025,0.675548 -0.45527,1.01699 -0.14501,0.341445 -0.28405,0.68507 -0.42116,1.029396 -0.27421,0.688649 -0.53943,1.380151 -0.82269,2.065506 -0.14161,0.342678 -0.28777,0.684012 -0.44183,1.02216 -0.15404,0.338148 -0.31613,0.673441 -0.48938,1.004591 -0.17324,0.331143 -0.35784,0.658113 -0.55708,0.979783 -0.1992,0.32168 -0.41293,0.63801 -0.64489,0.94775 -0.11599,0.15486 -0.2368,0.30798 -0.36227,0.4594 -0.12544,0.15142 -0.25543,0.30089 -0.39119,0.44855 -0.13575,0.14766 -0.27736,0.29359 -0.42425,0.43718 -0.14693,0.1436 -0.29946,0.28505 -0.45837,0.42427 -0.15893,0.13922 -0.32382,0.27629 -0.49559,0.41083 -0.17177,0.13453 -0.35044,0.26629 -0.53589,0.39584 -0.18544,0.12954 -0.37774,0.25661 -0.57774,0.38085 -0.2,0.12424 -0.4073,0.24569 -0.6227,0.36432 -0.21537,0.11863 -0.43913,0.23455 -0.67074,0.34727 -0.23165,0.11271 -0.47117,0.22218 -0.71986,0.32866 -0.2487,0.10648 -0.50646,0.21011 -0.77308,0.31006 -0.26665,0.1 -0.54245,0.19629 -0.82786,0.28939 -0.28543,0.0931 -0.58017,0.18277 -0.88521,0.26871 -0.30504,0.0859 -0.62019,0.16854 -0.9457,0.24702 -0.32549,0.0785 -0.66138,0.15305 -1.0082,0.22375 -0.34681,0.0707 -0.70485,0.13737 -1.07384,0.19999 -0.36898,0.0626 -0.749,0.12095 -1.14101,0.17519 -0.39201,0.0542 -0.79595,0.10432 -1.21182,0.14986 -0.41587,0.0455 -0.84357,0.0865 -1.28415,0.12299 -0.44056,0.0365 -0.894,0.0689 -1.36012,0.0961 -0.46614,0.0272 -0.94512,0.0496 -1.43764,0.0672 -0.49252,0.0176 -0.99849,0.0301 -1.51826,0.0377 -0.51977,0.008 -1.05357,0.0103 -1.60144,0.008 -0.54788,-0.003 -1.1099,-0.0101 -1.68672,-0.0233 -0.57682,-0.0131 -1.16848,-0.0318 -1.77509,-0.0558 -0.60661,-0.024 -1.22828,-0.0537 -1.86553,-0.0889 -1.27447,-0.0703 -2.61106,-0.16321 -4.0132,-0.28009 -1.4021,-0.11688 -2.8694,-0.25787 -4.40592,-0.42375 -1.53651,-0.16588 -3.14214,-0.35677 -4.81986,-0.57412 -0.55512,-0.0719 -1.10791,-0.12632 -1.6588,-0.16433 -0.55089,-0.038 -1.10006,-0.0594 -1.64693,-0.0651 -0.54689,-0.006 -1.09146,0.004 -1.63454,0.0289 -0.54306,0.0249 -1.08471,0.0645 -1.62417,0.11834 -0.53949,0.0539 -1.07675,0.12186 -1.61282,0.20309 -0.5361,0.0812 -1.07064,0.17572 -1.60354,0.28267 -0.53289,0.10694 -1.06431,0.22657 -1.59422,0.3576 -0.52991,0.13102 -1.0583,0.27337 -1.58543,0.42684 -0.52713,0.15348 -1.05312,0.3182 -1.57769,0.49248 -0.52456,0.17428 -1.04772,0.35845 -1.56993,0.5519 -0.52218,0.19346 -1.04317,0.39621 -1.56321,0.6072 -0.52004,0.211 -1.03891,0.42992 -1.55699,0.65681 -0.51808,0.2269 -1.0355,0.46164 -1.55186,0.7028 -0.51634,0.24116 -1.03188,0.4888 -1.54668,0.74259 -0.5148,0.25379 -1.02907,0.51347 -1.54252,0.77825 -0.51348,0.26478 -1.02608,0.5346 -1.53842,0.80873 -1.02468,0.54827 -2.04713,1.11395 -3.06853,1.68982 -1.02143,0.57588 -2.04155,1.16196 -3.06134,1.75235 -2.03954,1.18077 -4.07762,2.37748 -6.12055,3.53777 -1.02145,0.58014 -2.04428,1.15149 -3.06906,1.70687 -1.02478,0.55538 -2.05171,1.09477 -3.08147,1.6123 -0.51485,0.25877 -1.03024,0.51228 -1.54668,0.75913 -0.51641,0.24685 -1.03364,0.48707 -1.55183,0.72037 -0.51819,0.2333 -1.03738,0.45937 -1.55752,0.67748 -0.52015,0.2181 -1.04143,0.42814 -1.56374,0.62942 -5.41184,2.08554 -10.25242,3.95638 -14.58,5.63325 -4.32755,1.67686 -8.14181,3.16006 -11.50161,4.47052 -6.71959,2.62093 -11.62046,4.55133 -15.16807,5.96037 -0.77754,0.30882 -0.89266,0.36013 -1.54512,0.62064 h 159.77992 z" />
    <path
       id="path1406"
       style="fill:url(#linearGradient1294);fill-opacity:1;stroke-width:3.77953;stroke-linecap:round;stroke-linejoin:round;paint-order:markers fill stroke"
       d="m 89.253906,114.50977 v 536.74804 c 0.809008,-0.45741 1.605307,-0.89272 2.417969,-1.35742 2.671715,-1.52774 5.361793,-3.09563 8.058594,-4.69922 2.696801,-1.60359 5.399821,-3.24296 8.099611,-4.91797 2.69978,-1.675 5.39745,-3.38497 8.07812,-5.12695 2.68067,-1.74198 5.34492,-3.51774 7.98438,-5.32227 2.63946,-1.80452 5.25393,-3.63737 7.83008,-5.5 2.57614,-1.86263 5.11474,-3.75362 7.60546,-5.66992 2.49073,-1.9163 4.9332,-3.85869 7.31641,-5.82422 2.38321,-1.96553 4.70734,-3.95452 6.96094,-5.96484 2.25359,-2.01032 4.43718,-4.04307 6.53906,-6.09375 2.10188,-2.05068 4.12077,-4.12043 6.04883,-6.20703 0.96403,-1.0433 1.90583,-2.08917 2.82226,-3.14063 0.91644,-1.05145 1.80776,-2.10697 2.67383,-3.16601 0.86608,-1.05905 1.70658,-2.12142 2.51953,-3.1875 0.81296,-1.06609 1.59841,-2.13642 2.35547,-3.20899 0.75707,-1.07257 1.48518,-2.14806 2.1836,-3.22656 0.69842,-1.0785 1.3669,-2.16026 2.0039,-3.24414 0.63701,-1.08388 1.24357,-2.17107 1.81641,-3.25977 0.57283,-1.08869 1.11324,-2.17851 1.61914,-3.27148 0.5059,-1.09296 0.97786,-2.18848 1.41406,-3.28516 0.4362,-1.09667 0.83548,-2.19508 1.19922,-3.29492 0.36374,-1.09983 0.69195,-2.20029 0.98047,-3.30273 0.28852,-1.10244 0.53751,-2.20606 0.74805,-3.31055 0.21053,-1.10449 0.38193,-2.21042 0.51172,-3.3164 0.12978,-1.10599 0.21739,-2.2134 0.26367,-3.32032 0.0463,-1.10692 0.0517,-2.213 0.0117,-3.32031 -0.04,-1.10731 -0.12488,-2.21513 -0.25391,-3.32227 -0.13318,-1.14268 -0.23399,-2.27263 -0.30469,-3.39062 -0.0707,-1.11799 -0.1114,-2.22448 -0.12109,-3.31836 -0.01,-1.09388 0.0107,-2.17574 0.0606,-3.24609 0.0498,-1.07036 0.13041,-2.12837 0.23828,-3.17579 0.10786,-1.04741 0.24378,-2.08431 0.4082,-3.10937 0.16442,-1.02506 0.35667,-2.03772 0.57617,-3.04102 0.2195,-1.00329 0.46519,-1.9964 0.73828,-2.97851 0.2731,-0.98211 0.57324,-1.9545 0.89844,-2.91602 0.3252,-0.96151 0.6769,-1.91201 1.05274,-2.85351 0.37583,-0.94151 0.77619,-1.87285 1.20117,-2.79492 0.42498,-0.92208 0.87305,-1.83505 1.3457,-2.73829 0.47265,-0.90323 0.96945,-1.79665 1.48828,-2.68164 0.51883,-0.88498 1.06147,-1.76159 1.625,-2.6289 0.56353,-0.86732 1.14911,-1.72594 1.75586,-2.57617 0.60675,-0.85024 1.23432,-1.69166 1.88281,-2.52539 0.64849,-0.83374 1.31711,-1.66069 2.00586,-2.47852 1.3775,-1.63565 2.83365,-3.23893 4.36328,-4.81445 1.52964,-1.57552 3.13283,-3.12251 4.80274,-4.64258 1.66991,-1.52008 3.40674,-3.01311 5.20508,-4.48242 1.79833,-1.46932 3.65735,-2.91465 5.57226,-4.33789 1.91491,-1.42325 3.88663,-2.82518 5.90625,-4.20704 2.01963,-1.38185 4.08869,-2.74469 6.20117,-4.08984 2.11249,-1.34515 4.26745,-2.67319 6.46094,-3.98633 2.1935,-1.31313 4.42485,-2.61068 6.6875,-3.89648 2.26265,-1.2858 4.55701,-2.55911 6.87695,-3.82227 2.31995,-1.26315 4.66587,-2.51652 7.03125,-3.76172 4.73078,-2.49039 9.53945,-4.94982 14.38086,-7.39648 4.84142,-2.44666 9.71504,-4.8799 14.57227,-7.32031 4.85722,-2.44041 9.69837,-4.88773 14.47656,-7.35938 4.7782,-2.47165 9.49333,-4.96744 14.09766,-7.50781 2.30216,-1.27018 4.57744,-2.55131 6.81836,-3.8457 2.24091,-1.2944 4.44742,-2.6025 6.61523,-3.92578 2.16781,-1.32329 4.29606,-2.66267 6.37891,-4.01954 2.08285,-1.35686 4.11943,-2.73182 6.10547,-4.12695 1.98603,-1.39513 3.92146,-2.80997 5.79882,-4.24805 1.87737,-1.43808 3.69824,-2.89905 5.45508,-4.38476 0.87843,-0.74286 1.72261,-1.48848 2.53711,-2.23828 0.8145,-0.74981 1.59792,-1.50335 2.35157,-2.25977 0.75364,-0.75642 1.47796,-1.51659 2.17382,-2.2793 0.69586,-0.7627 1.36472,-1.52822 2.00586,-2.29687 0.64115,-0.76865 1.25426,-1.54019 1.84375,-2.31445 0.5895,-0.77427 1.1544,-1.55054 1.69531,-2.33008 0.54092,-0.77955 1.05929,-1.56121 1.55469,-2.34571 0.4954,-0.78449 0.96892,-1.57222 1.42188,-2.36132 0.90591,-1.57821 1.72982,-3.16511 2.48437,-4.75977 0.75455,-1.59466 1.43868,-3.19624 2.06641,-4.80469 0.62773,-1.60844 1.19916,-3.22418 1.72461,-4.84375 0.52545,-1.61956 1.0054,-3.24308 1.45312,-4.87109 0.44772,-1.62801 0.86328,-3.26074 1.25782,-4.89453 0.39453,-1.63379 0.76691,-3.26935 1.13281,-4.90625 0.7318,-3.27381 1.43273,-6.55201 2.19726,-9.82227 0.38227,-1.63512 0.77977,-3.2682 1.20703,-4.89843 0.42727,-1.63024 0.88405,-3.25623 1.38086,-4.87891 0.49682,-1.62268 1.0341,-3.24107 1.625,-4.85352 0.59091,-1.61244 1.23382,-3.2188 1.94336,-4.81836 0.70955,-1.59955 1.48516,-3.19335 2.33789,-4.77734 0.42637,-0.79199 0.87308,-1.58154 1.33985,-2.36914 0.46676,-0.7876 0.95461,-1.57259 1.46484,-2.35547 0.51023,-0.78288 1.04284,-1.56398 1.59961,-2.3418 0.55677,-0.77782 1.13777,-1.55179 1.74414,-2.32421 0.60637,-0.77243 1.23744,-1.54189 1.89649,-2.3086 0.65904,-0.7667 1.34576,-1.53037 2.06054,-2.29101 0.71479,-0.76065 1.45688,-1.51919 2.23047,-2.27344 0.77359,-0.75425 1.5786,-1.50443 2.41406,-2.25195 0.83547,-0.74753 1.70311,-1.49196 2.60352,-2.23243 0.90041,-0.74046 1.83236,-1.47786 2.80078,-2.21093 0.96843,-0.73308 1.97221,-1.46215 3.01172,-2.1875 1.03951,-0.72535 2.11486,-1.44678 3.22852,-2.16407 1.11365,-0.71729 2.26615,-1.42977 3.45703,-2.13867 1.19087,-0.70889 2.42024,-1.41506 3.6914,-2.11523 1.27116,-0.70017 2.58299,-1.39483 3.9375,-2.08594 1.35452,-0.69111 2.75243,-1.37883 4.19336,-2.06055 1.44094,-0.68171 2.92661,-1.35731 4.45703,-2.02929 1.53043,-0.67199 3.10553,-1.34003 4.72852,-2.00196 1.62299,-0.66192 3.2931,-1.31721 5.01172,-1.96875 1.71861,-0.65153 3.48542,-1.29864 5.30273,-1.93945 1.81731,-0.64081 3.68444,-1.27651 5.60352,-1.90625 1.91907,-0.62974 3.89015,-1.25274 5.91406,-1.87109 2.02391,-0.61835 4.10062,-1.23127 6.23242,-1.83789 2.13181,-0.60663 4.31973,-1.20818 6.5625,-1.80274 2.24278,-0.59456 4.54163,-1.18346 6.89844,-1.76562 2.35681,-0.58217 4.77022,-1.15713 7.24414,-1.72657 4.94784,-1.13887 10.13369,-2.25193 15.56836,-3.33789 5.43467,-1.08595 11.11841,-2.14541 17.06445,-3.17578 1.13353,-0.19642 2.27339,-0.42098 3.41797,-0.67383 1.14458,-0.25284 2.29451,-0.53246 3.44922,-0.83984 1.15471,-0.30738 2.31458,-0.64193 3.47852,-1.00195 1.16393,-0.36003 2.33165,-0.74742 3.5039,-1.15821 1.17225,-0.41078 2.3477,-0.84503 3.52735,-1.30468 1.17964,-0.45965 2.36269,-0.94455 3.54882,-1.45118 2.37227,-1.01325 4.75767,-2.11875 7.15039,-3.30859 2.39273,-1.18984 4.79334,-2.46314 7.19922,-3.81445 2.40589,-1.35132 4.81679,-2.77966 7.22852,-4.27735 2.41173,-1.49768 4.82409,-3.06441 7.23437,-4.69336 2.41029,-1.62894 4.81918,-3.31936 7.22071,-5.06445 2.40152,-1.74509 4.79617,-3.54449 7.18164,-5.39062 2.38546,-1.84613 4.76095,-3.73982 7.12304,-5.67188 2.3621,-1.93206 4.71155,-3.90337 7.04297,-5.90625 2.33143,-2.00288 4.64405,-4.03711 6.9375,-6.0957 2.29346,-2.0586 4.56628,-4.14104 6.81446,-6.24024 2.24817,-2.0992 4.47238,-4.21514 6.66797,-6.33984 2.19558,-2.1247 4.36234,-4.25945 6.49804,-6.39453 2.1357,-2.13508 4.24009,-4.27003 6.3086,-6.40039 2.0685,-2.13036 4.10169,-4.25471 6.0957,-6.36524 1.99401,-2.11053 3.94912,-4.20761 5.86133,-6.2832 3.82441,-4.15118 7.47826,-8.2179 10.93164,-12.13867 3.45337,-3.92077 6.70656,-7.69614 9.73047,-11.26563 3.0239,-3.56948 5.81752,-6.93196 8.35351,-10.02929 2.536,-3.09733 4.81504,-5.92929 6.80469,-8.4336 1.98965,-2.5043 3.6913,-4.68225 5.07617,-6.47265 2.76974,-3.58082 4.27149,-5.61328 4.27149,-5.61328 z"
       transform="scale(0.26458333)" />
  </g>
</svg>
