<?xml version="1.0" encoding="UTF-8" standalone="no"?>
<!-- Created with Inkscape (http://www.inkscape.org/) -->

<svg
   width="175.55002mm"
   height="103.57713mm"
   viewBox="0 0 175.55002 103.57713"
   version="1.1"
   id="svg5"
   inkscape:version="1.1.2 (1:1.1+202202050950+0a00cf5339)"
   sodipodi:docname="upperBackground.svg"
   xmlns:inkscape="http://www.inkscape.org/namespaces/inkscape"
   xmlns:sodipodi="http://sodipodi.sourceforge.net/DTD/sodipodi-0.dtd"
   xmlns:xlink="http://www.w3.org/1999/xlink"
   xmlns="http://www.w3.org/2000/svg"
   xmlns:svg="http://www.w3.org/2000/svg">
  <sodipodi:namedview
     id="namedview7"
     pagecolor="#ffffff"
     bordercolor="#666666"
     borderopacity="1.0"
     inkscape:pageshadow="2"
     inkscape:pageopacity="0.0"
     inkscape:pagecheckerboard="0"
     inkscape:document-units="mm"
     showgrid="false"
     fit-margin-top="0"
     fit-margin-left="0"
     fit-margin-right="0"
     fit-margin-bottom="0"
     showborder="false"
     inkscape:zoom="0.46858866"
     inkscape:cx="401.20475"
     inkscape:cy="418.2773"
     inkscape:window-width="1366"
     inkscape:window-height="702"
     inkscape:window-x="0"
     inkscape:window-y="38"
     inkscape:window-maximized="1"
     inkscape:current-layer="layer1" />
  <defs
     id="defs2">
    <linearGradient
       inkscape:collect="always"
       id="linearGradient12119">
      <stop
         style="stop-color:#df2109;stop-opacity:1;"
         offset="0"
         id="stop12115" />
      <stop
         style="stop-color:#f6be28;stop-opacity:0.93333334"
         offset="1"
         id="stop12117" />
    </linearGradient>
    <linearGradient
       inkscape:collect="always"
       xlink:href="#linearGradient12119"
       id="linearGradient12121"
       x1="17.815802"
       y1="93.420265"
       x2="194.36581"
       y2="93.420265"
       gradientUnits="userSpaceOnUse"
       gradientTransform="translate(-203.84751,-3.8852693)" />
  </defs>
  <g
     inkscape:label="Layer 1"
     inkscape:groupmode="layer"
     id="layer1"
     transform="translate(185.53171,-37.746429)">
    <path
       id="rect846"
       style="fill:url(#linearGradient12121);fill-opacity:1;fill-rule:nonzero;stroke:none;stroke-width:1;stroke-linecap:round;stroke-linejoin:round;stroke-miterlimit:4;stroke-dasharray:none;stroke-opacity:1;paint-order:markers fill stroke"
       d="M -9.9816931,39.11017 V 37.746429 H -185.53171 V 141.32356 c 0.0305,-0.003 0.06,-0.004 0.0904,-0.007 0.85558,-0.0712 1.71977,-0.15247 2.58899,-0.24547 0.86922,-0.093 1.74347,-0.19769 2.61999,-0.31471 0.87653,-0.11702 1.75541,-0.24636 2.63292,-0.38964 0.8775,-0.14327 1.75353,-0.30057 2.62568,-0.47232 0.87215,-0.17175 1.74041,-0.35823 2.60088,-0.56069 0.86046,-0.20246 1.71346,-0.42089 2.55591,-0.65629 0.84246,-0.2354 1.67424,-0.48753 2.49236,-0.75809 0.81811,-0.27057 1.62223,-0.55969 2.40967,-0.86765 0.39372,-0.15398 0.78354,-0.31271 1.1684,-0.47646 0.38487,-0.16374 0.76477,-0.33212 1.13998,-0.50591 0.37522,-0.17379 0.74575,-0.35281 1.11053,-0.53692 0.36478,-0.18411 0.7239,-0.37372 1.07745,-0.56844 0.35356,-0.19471 0.7013,-0.39437 1.04284,-0.59996 0.34153,-0.20559 0.67689,-0.4168 1.00562,-0.63355 0.32872,-0.21676 0.65071,-0.43947 0.96583,-0.66766 0.31512,-0.22819 0.62325,-0.46186 0.92397,-0.70177 0.30073,-0.2399 0.594,-0.48604 0.87954,-0.73794 0.28554,-0.2519 0.56346,-0.50942 0.83302,-0.77359 0.26957,-0.26417 0.53114,-0.5346 0.78393,-0.81133 0.2528,-0.27672 0.49702,-0.56 0.73226,-0.84955 0.23524,-0.28956 0.46162,-0.58566 0.67851,-0.88832 0.21689,-0.30266 0.42392,-0.61206 0.62167,-0.92811 0.19774,-0.31605 0.38597,-0.63871 0.56379,-0.96842 0.17781,-0.32971 0.3452,-0.6661 0.50229,-1.00975 0.15709,-0.34366 0.30368,-0.69426 0.43925,-1.05214 0.13558,-0.35788 0.26035,-0.72316 0.37362,-1.09554 0.11327,-0.37238 0.21524,-0.7523 0.30541,-1.13946 0.0902,-0.38716 0.16884,-0.78169 0.23513,-1.18391 0.0448,-0.27161 0.10089,-0.53559 0.16898,-0.7922 0.0681,-0.25661 0.14812,-0.50569 0.23874,-0.74776 0.0906,-0.24206 0.19201,-0.47689 0.30438,-0.70486 0.11237,-0.22798 0.23564,-0.4492 0.36897,-0.66353 0.13332,-0.21433 0.27697,-0.42207 0.43046,-0.62322 0.15349,-0.20114 0.31652,-0.39553 0.48938,-0.58394 0.17286,-0.18841 0.3553,-0.3706 0.54674,-0.54674 0.19144,-0.17613 0.39228,-0.34625 0.60151,-0.51056 0.20923,-0.16431 0.42697,-0.323 0.65319,-0.47594 0.22622,-0.15294 0.46089,-0.30033 0.70332,-0.44235 0.24243,-0.14202 0.4925,-0.27875 0.75034,-0.41031 0.25784,-0.13156 0.52335,-0.25776 0.79581,-0.37931 0.27247,-0.12154 0.5519,-0.23837 0.8382,-0.35036 0.28629,-0.11199 0.57916,-0.21906 0.8785,-0.32195 0.59866,-0.20577 1.22306,-0.39378 1.86913,-0.56586 0.64607,-0.17207 1.31377,-0.32824 2.00091,-0.47025 0.68714,-0.14201 1.39324,-0.26993 2.11512,-0.38551 0.72188,-0.11557 1.45992,-0.21883 2.2102,-0.3116 0.75029,-0.0928 1.51329,-0.17498 2.28565,-0.24857 0.77236,-0.0736 1.55388,-0.13884 2.34198,-0.19689 0.7881,-0.058 1.58271,-0.1089 2.38021,-0.15503 1.59502,-0.0922 3.20247,-0.16414 4.79713,-0.23047 1.59465,-0.0663 3.1765,-0.12744 4.72012,-0.19689 1.54363,-0.0695 3.04874,-0.14748 4.49068,-0.24908 0.72097,-0.0508 1.42648,-0.10729 2.11253,-0.17156 0.68605,-0.0643 1.35302,-0.13617 1.99781,-0.21756 0.6448,-0.0814 1.26728,-0.17228 1.86449,-0.27441 0.59721,-0.10212 1.16875,-0.2156 1.71204,-0.34209 0.54329,-0.12649 1.05847,-0.26616 1.54152,-0.42065 0.24151,-0.0772 0.47494,-0.15796 0.70021,-0.24288 0.22527,-0.0849 0.44238,-0.17411 0.65061,-0.26717 0.20822,-0.093 0.4075,-0.19033 0.59789,-0.29197 0.1904,-0.10164 0.37187,-0.20764 0.54364,-0.31832 0.17177,-0.11068 0.33392,-0.22606 0.48628,-0.34624 0.15235,-0.12017 0.2947,-0.24505 0.426837,-0.37517 0.13215,-0.13012 0.25421,-0.26514 0.36536,-0.40566 0.11114,-0.14052 0.2114,-0.28632 0.30075,-0.4377 0.0893,-0.15137 0.16733,-0.3086 0.2341,-0.47129 0.0668,-0.16268 0.12248,-0.33095 0.16588,-0.50539 0.0434,-0.17444 0.0748,-0.35491 0.094,-0.54157 0.0192,-0.18666 0.0259,-0.37945 0.0202,-0.57878 -0.006,-0.19932 -0.0238,-0.40508 -0.0553,-0.61753 -0.0315,-0.21245 -0.0763,-0.43182 -0.13436,-0.65784 -0.35675,-1.38978 -0.69849,-2.74698 -1.02629,-4.072615 -0.327807,-1.32563 -0.641557,-2.61959 -0.941027,-3.88245 -0.29947,-1.262844 -0.58505,-2.494434 -0.8568,-3.695894 -0.27174,-1.20145 -0.52948,-2.37257 -0.77411,-3.514 -0.24462,-1.14142 -0.4759,-2.25345 -0.69401,-3.33623 -0.21812,-1.08277 -0.42326,-2.13659 -0.61548,-3.16208 -0.19221,-1.025493 -0.37155,-2.022483 -0.53847,-2.992063 -0.16691,-0.96958 -0.32131,-1.91165 -0.46354,-2.8267 -0.14222,-0.91505 -0.272,-1.80306 -0.39015,-2.66495 -0.11815,-0.86189 -0.22469,-1.69776 -0.31936,-2.50786 -0.0947,-0.8101 -0.17779,-1.59469 -0.2496,-2.35438 -0.0718,-0.75969 -0.13234,-1.49438 -0.1819,-2.20503 -0.0496,-0.71065 -0.0878,-1.39736 -0.11576,-2.060341 -0.0279,-0.66298 -0.0453,-1.302057 -0.0522,-1.918745 -0.007,-0.616688 -0.003,-1.210554 0.0103,-1.782321 0.0136,-0.571767 0.0369,-1.121807 0.0703,-1.650029 0.0334,-0.528219 0.0766,-1.034791 0.1292,-1.520835 0.0526,-0.486048 0.11482,-0.951569 0.18603,-1.396815 0.0712,-0.445246 0.1516,-0.870072 0.24081,-1.27589 0.0892,-0.40582 0.18692,-0.792371 0.29353,-1.160137 0.1066,-0.367765 0.2218,-0.716912 0.34519,-1.047999 0.1234,-0.331083 0.25524,-0.644215 0.39481,-0.939993 0.13957,-0.295777 0.28721,-0.57428 0.44235,-0.836125 0.15514,-0.261843 0.31773,-0.507106 0.48784,-0.736389 0.1701,-0.229282 0.34781,-0.442693 0.53227,-0.640789 0.18445,-0.198096 0.37592,-0.380521 0.57412,-0.548804 0.1982,-0.16828 0.40309,-0.322143 0.61443,-0.461986 0.21134,-0.139843 0.42881,-0.266012 0.65268,-0.378788 0.22387,-0.112776 0.45408,-0.212125 0.68988,-0.299207 0.23579,-0.08708 0.47739,-0.162031 0.724497,-0.224792 0.24711,-0.06276 0.49976,-0.113665 0.75758,-0.15348 0.25781,-0.03981 0.52067,-0.06806 0.78858,-0.0863 0.26791,-0.01824 0.54063,-0.02625 0.81804,-0.02429 0.2774,0.002 0.55965,0.01384 0.84594,0.03462 0.28629,0.02079 0.5767,0.05064 0.87127,0.08888 0.29456,0.03824 0.59332,0.08469 0.89555,0.139009 0.30223,0.05432 0.60796,0.116491 0.91725,0.185518 0.30929,0.06903 0.62219,0.145015 0.93793,0.227378 0.63148,0.164724 1.27492,0.354486 1.92857,0.564306 0.65364,0.209819 1.31705,0.439753 1.98799,0.68368 0.67093,0.243925 1.34958,0.501896 2.03295,0.768946 1.36674,0.534095 2.75353,1.10332 4.14083,1.66398 0.69365,0.280329 1.38745,0.558914 2.07894,0.829405 0.6915,0.270492 1.38052,0.533233 2.06499,0.7829 0.68447,0.249666 1.36449,0.485978 2.03709,0.703831 0.67259,0.217855 1.33782,0.417158 1.99367,0.592214 0.32793,0.08753 0.65334,0.169146 0.97617,0.243912 0.32283,0.07477 0.64303,0.142454 0.96015,0.203088 0.31712,0.06063 0.63125,0.114036 0.94206,0.159163 0.31081,0.04513 0.61854,0.08234 0.92242,0.110588 0.30389,0.02825 0.60385,0.04737 0.90021,0.05736 0.29636,0.01 0.58873,0.01067 0.87695,0.001 0.28822,-0.0096 0.57215,-0.02931 0.85162,-0.05994 0.27948,-0.03063 0.55464,-0.07205 0.82476,-0.125058 1.21385,-0.238189 2.4942,-0.464251 3.82871,-0.682644 1.3345,-0.218395 2.72323,-0.428971 4.15427,-0.636137 2.86206,-0.414335 5.89291,-0.815251 8.99634,-1.236102 1.55172,-0.210423 3.12152,-0.425696 4.69739,-0.650605 1.57587,-0.224909 3.15767,-0.459489 4.73356,-0.707451 1.5759,-0.24796 3.14611,-0.509516 4.69791,-0.789099 0.7759,-0.139792 1.54717,-0.283744 2.31252,-0.433048 0.76535,-0.149305 1.52456,-0.30365 2.27634,-0.463537 0.75179,-0.159888 1.49619,-0.325586 2.23139,-0.497128 0.73521,-0.171543 1.46152,-0.349031 2.17713,-0.5333 0.71562,-0.184269 1.42056,-0.375026 2.11357,-0.573093 0.693,-0.198064 1.37384,-0.403563 2.04122,-0.6165 0.66737,-0.212934 1.32135,-0.433618 1.96008,-0.66249 0.63874,-0.228875 1.26206,-0.465701 1.86914,-0.711587 0.60708,-0.245885 1.19803,-0.500843 1.77043,-0.764809 0.57241,-0.263967 1.12669,-0.536986 1.6614,-0.820106 0.53472,-0.28312 1.04957,-0.576188 1.54358,-0.879533 0.49401,-0.303345 0.96719,-0.616905 1.41748,-0.941543 0.4503,-0.324641 0.87802,-0.660167 1.28158,-1.007174 0.20178,-0.173506 0.39751,-0.349872 0.58704,-0.529166 0.18953,-0.179298 0.37242,-0.361517 0.54932,-0.546738 0.17691,-0.185222 0.3477,-0.373542 0.5115999,-0.564825 0.004,-0.0052 0.008,-0.01077 0.0129,-0.01602 z" />
    <path
       id="path1868"
       style="fill:#000000;fill-opacity:0.306692;stroke:#000000;stroke-width:1;stroke-linecap:round;stroke-linejoin:round;stroke-miterlimit:4;stroke-dasharray:none;stroke-opacity:1;paint-order:markers fill stroke"
       d="m 343.33452,130.56969 c -0.004,0.005 -0.008,0.0108 -0.0129,0.016 -0.1639,0.19129 -0.33469,0.37961 -0.5116,0.56483 -0.1769,0.18522 -0.35979,0.36744 -0.54932,0.54674 -0.18953,0.17929 -0.38526,0.35566 -0.58704,0.52916 -0.40356,0.34701 -0.83128,0.68254 -1.28158,1.00718 -0.45029,0.32464 -0.92347,0.6382 -1.41748,0.94154 -0.49401,0.30335 -1.00886,0.59641 -1.54358,0.87953 -0.53471,0.28312 -1.08899,0.55614 -1.6614,0.82011 -0.5724,0.26397 -1.16335,0.51892 -1.77043,0.76481 -0.60708,0.24588 -1.2304,0.48271 -1.86914,0.71159 -0.63873,0.22887 -1.29271,0.44955 -1.96008,0.66249 -0.66738,0.21293 -1.34822,0.41843 -2.04122,0.6165 -0.69301,0.19806 -1.39795,0.38882 -2.11357,0.57309 -0.71561,0.18427 -1.44192,0.36176 -2.17713,0.5333 -0.7352,0.17154 -1.4796,0.33724 -2.23139,0.49713 -0.75178,0.15988 -1.51099,0.31423 -2.27634,0.46353 -0.76535,0.14931 -1.53662,0.29326 -2.31252,0.43305 -1.5518,0.27958 -3.12201,0.54114 -4.69791,0.7891 -1.57589,0.24796 -3.15769,0.48254 -4.73356,0.70745 -1.57587,0.22491 -3.14567,0.44018 -4.69739,0.65061 -3.10343,0.42085 -6.13428,0.82176 -8.99634,1.2361 -1.43104,0.20716 -2.81977,0.41774 -4.15427,0.63614 -1.33451,0.21839 -2.61486,0.44445 -3.82871,0.68264 -0.27012,0.053 -0.54528,0.0944 -0.82476,0.12506 -0.27947,0.0306 -0.5634,0.0503 -0.85162,0.0599 -0.28822,0.01 -0.58059,0.009 -0.87695,-0.001 -0.29636,-0.01 -0.59632,-0.0291 -0.90021,-0.0574 -0.30388,-0.0282 -0.61161,-0.0655 -0.92242,-0.11059 -0.31081,-0.0451 -0.62494,-0.0985 -0.94206,-0.15916 -0.31712,-0.0606 -0.63732,-0.12832 -0.96015,-0.20309 -0.32283,-0.0748 -0.64824,-0.15639 -0.97617,-0.24391 -0.65585,-0.17506 -1.32108,-0.37436 -1.99367,-0.59222 -0.6726,-0.21785 -1.35262,-0.45416 -2.03709,-0.70383 -0.68447,-0.24967 -1.37349,-0.51241 -2.06499,-0.7829 -0.69149,-0.27049 -1.38529,-0.54907 -2.07894,-0.8294 -1.3873,-0.56066 -2.77409,-1.12989 -4.14083,-1.66398 -0.68337,-0.26705 -1.36202,-0.52502 -2.03295,-0.76895 -0.67094,-0.24393 -1.33435,-0.47386 -1.98799,-0.68368 -0.65365,-0.20982 -1.29709,-0.39958 -1.92857,-0.56431 -0.31574,-0.0824 -0.62864,-0.15834 -0.93793,-0.22737 -0.30929,-0.069 -0.61502,-0.1312 -0.91725,-0.18552 -0.30223,-0.0543 -0.60099,-0.10077 -0.89555,-0.13901 -0.29457,-0.0382 -0.58498,-0.0681 -0.87127,-0.0889 -0.28629,-0.0208 -0.56854,-0.0327 -0.84594,-0.0346 -0.27741,-0.002 -0.55013,0.006 -0.81804,0.0243 -0.26791,0.0182 -0.53077,0.0465 -0.78858,0.0863 -0.25782,0.0398 -0.51047,0.0907 -0.75758,0.15348 -0.24711,0.0628 -0.48871,0.13771 -0.7245,0.22479 -0.2358,0.0871 -0.46601,0.18643 -0.68988,0.29921 -0.22387,0.11277 -0.44134,0.23894 -0.65268,0.37879 -0.21134,0.13984 -0.41623,0.2937 -0.61443,0.46198 -0.1982,0.16829 -0.38967,0.35071 -0.57412,0.54881 -0.18446,0.19809 -0.36217,0.4115 -0.53227,0.64079 -0.17011,0.22928 -0.33269,0.47454 -0.48783,0.73638 -0.15514,0.26185 -0.30278,0.54035 -0.44235,0.83613 -0.13957,0.29578 -0.27141,0.60891 -0.39481,0.93999 -0.12339,0.33109 -0.23859,0.68024 -0.34519,1.048 -0.10661,0.36777 -0.20431,0.75432 -0.29353,1.16014 -0.0892,0.40582 -0.16959,0.83064 -0.24081,1.27589 -0.0712,0.44524 -0.13343,0.91077 -0.18603,1.39681 -0.0526,0.48605 -0.0958,0.99262 -0.1292,1.52084 -0.0334,0.52822 -0.0567,1.07826 -0.0703,1.65003 -0.0136,0.57176 -0.0172,1.16563 -0.0103,1.78232 0.007,0.61669 0.0243,1.25576 0.0522,1.91874 0.0279,0.66298 0.0662,1.34969 0.11576,2.06034 0.0496,0.71065 0.11009,1.44534 0.1819,2.20503 0.0718,0.75969 0.15492,1.54428 0.2496,2.35438 0.0947,0.8101 0.20121,1.64597 0.31936,2.50786 0.11815,0.86189 0.24793,1.7499 0.39015,2.66495 0.14223,0.91505 0.29663,1.85712 0.46354,2.8267 0.16692,0.96958 0.34626,1.96657 0.53847,2.99206 0.19221,1.02549 0.39735,2.07931 0.61547,3.16208 0.21811,1.08278 0.44939,2.19481 0.69401,3.33623 0.24463,1.14143 0.50237,2.31255 0.77411,3.514 0.27175,1.20146 0.55733,2.43305 0.8568,3.6959 0.29947,1.26286 0.61322,2.55682 0.94103,3.88245 0.3278,1.32563 0.66954,2.68284 1.02629,4.07262 0.058,0.22602 0.10288,0.44539 0.13436,0.65784 0.0315,0.21245 0.0496,0.41821 0.0553,0.61753 0.006,0.19933 -9.3e-4,0.39212 -0.0202,0.57878 -0.0192,0.18666 -0.0507,0.36713 -0.094,0.54157 -0.0434,0.17444 -0.0991,0.34271 -0.16588,0.50539 -0.0668,0.16269 -0.14474,0.31992 -0.2341,0.47129 -0.0894,0.15138 -0.18961,0.29718 -0.30075,0.4377 -0.11115,0.14052 -0.23321,0.27554 -0.36536,0.40566 -0.13214,0.13012 -0.27449,0.255 -0.42684,0.37517 -0.15236,0.12018 -0.31451,0.23556 -0.48628,0.34624 -0.17177,0.11068 -0.35324,0.21668 -0.54364,0.31832 -0.19039,0.10164 -0.38967,0.19892 -0.59789,0.29197 -0.20823,0.0931 -0.42534,0.18225 -0.65061,0.26717 -0.22527,0.0849 -0.4587,0.16564 -0.70021,0.24288 -0.48304,0.15449 -0.99822,0.29416 -1.54151,0.42065 -0.54329,0.12649 -1.11483,0.23997 -1.71204,0.34209 -0.59721,0.10213 -1.21969,0.19302 -1.86449,0.27441 -0.64479,0.0814 -1.31176,0.15328 -1.99781,0.21756 -0.68605,0.0643 -1.39156,0.12076 -2.11253,0.17156 -1.44194,0.1016 -2.94706,0.17963 -4.49068,0.24908 -1.54363,0.0694 -3.12547,0.13055 -4.72013,0.19689 -1.59465,0.0663 -3.20211,0.13823 -4.79712,0.23047 -0.79751,0.0461 -1.59212,0.097 -2.38022,0.15503 -0.7881,0.058 -1.56961,0.1233 -2.34197,0.19689 -0.77236,0.0736 -1.53536,0.15579 -2.28565,0.24857 -0.75029,0.0928 -1.48832,0.19603 -2.2102,0.3116 -0.72188,0.11558 -1.42798,0.2435 -2.11512,0.38551 -0.68714,0.14201 -1.35484,0.29818 -2.00091,0.47025 -0.64607,0.17208 -1.27047,0.36009 -1.86914,0.56586 -0.29933,0.10289 -0.5922,0.20996 -0.8785,0.32195 -0.28629,0.11199 -0.56572,0.22882 -0.83819,0.35036 -0.27246,0.12155 -0.53797,0.24775 -0.79581,0.37931 -0.25785,0.13156 -0.50792,0.26829 -0.75035,0.41031 -0.24243,0.14202 -0.47709,0.28941 -0.70331,0.44235 -0.22623,0.15294 -0.44396,0.31163 -0.65319,0.47594 -0.20923,0.16431 -0.41008,0.33443 -0.60152,0.51056 -0.19144,0.17614 -0.37387,0.35833 -0.54673,0.54674 -0.17286,0.18841 -0.33589,0.3828 -0.48938,0.58394 -0.15349,0.20115 -0.29714,0.40889 -0.43046,0.62322 -0.13333,0.21433 -0.2566,0.43555 -0.36897,0.66353 -0.11238,0.22797 -0.21375,0.4628 -0.30438,0.70486 -0.0906,0.24207 -0.17065,0.49115 -0.23874,0.74776 -0.0681,0.25661 -0.12422,0.52059 -0.16899,0.7922 -0.0663,0.40222 -0.14495,0.79675 -0.23512,1.18391 -0.0902,0.38716 -0.19214,0.76708 -0.30541,1.13946 -0.11327,0.37238 -0.23804,0.73766 -0.37362,1.09554 -0.13558,0.35788 -0.28216,0.70848 -0.43925,1.05214 -0.15709,0.34365 -0.32448,0.68004 -0.5023,1.00975 -0.17781,0.32971 -0.36604,0.65237 -0.56379,0.96842 -0.19774,0.31605 -0.40477,0.62545 -0.62166,0.92811 -0.21689,0.30266 -0.44328,0.59876 -0.67851,0.88832 -0.23524,0.28955 -0.47946,0.57283 -0.73226,0.84955 -0.2528,0.27673 -0.51437,0.54716 -0.78393,0.81133 -0.26957,0.26417 -0.54748,0.52169 -0.83303,0.77359 -0.28554,0.2519 -0.5788,0.49804 -0.87953,0.73794 -0.30072,0.23991 -0.60885,0.47358 -0.92397,0.70177 -0.31512,0.22819 -0.63711,0.4509 -0.96583,0.66766 -0.32873,0.21675 -0.66409,0.42796 -1.00563,0.63355 -0.34153,0.20559 -0.68928,0.40525 -1.04283,0.59996 -0.35355,0.19472 -0.71267,0.38433 -1.07745,0.56844 -0.36478,0.18411 -0.73531,0.36313 -1.11053,0.53692 -0.37522,0.17379 -0.75511,0.34217 -1.13998,0.50591 -0.38487,0.16375 -0.77468,0.32248 -1.1684,0.47646 -0.78745,0.30796 -1.59156,0.59708 -2.40968,0.86765 -0.81811,0.27056 -1.64989,0.52269 -2.49235,0.75809 -0.84246,0.2354 -1.69545,0.45383 -2.55592,0.65629 -0.86047,0.20246 -1.72872,0.38894 -2.60087,0.56069 -0.87215,0.17175 -1.74818,0.32905 -2.62568,0.47232 -0.8775,0.14328 -1.75639,0.27262 -2.63292,0.38964 -0.87652,0.11702 -1.75077,0.22172 -2.61999,0.31471 -0.86922,0.093 -1.73341,0.17427 -2.58899,0.24547 -0.0305,0.003 -0.06,0.004 -0.0904,0.007 v 0.032 h 175.54995 z" />
  </g>
</svg>
